<svg xmlns="http://www.w3.org/2000/svg" xmlns:xlink="http://www.w3.org/1999/xlink" width="24" height="24" viewBox="0 0 24 24">
    <defs>
        <path id="a" d="M20.715 7.98l-4.68-4.68c-.19-.19-.45-.3-.71-.3h-6.64c-.26 0-.52.11-.7.29l-4.69 4.69c-.18.18-.29.44-.29.7v6.63c0 .27.11.52.29.71l4.68 4.68c.19.19.45.3.71.3h6.63c.27 0 .52-.11.71-.29l4.68-4.68a.99.99 0 0 0 .29-.71V8.68c.01-.26-.1-.52-.28-.7zm-1.71 6.92l-4.1 4.1h-5.8l-4.1-4.1V9.1l4.1-4.1h5.8l4.1 4.1v5.8zm-7 .1a1 1 0 1 0 0 2 1 1 0 0 0 0-2zm0-8c-.55 0-1 .45-1 1v5c0 .55.45 1 1 1s1-.45 1-1V8c0-.55-.45-1-1-1z"/>
    </defs>
    <g fill="none" fill-rule="evenodd">
        <mask id="b" fill="#fff">
            <use xlink:href="#a"/>
        </mask>
        <g fill="#000" fill-opacity=".54" mask="url(#b)">
            <path d="M0 0h24v24H0z"/>
        </g>
    </g>
</svg>
