<svg xmlns="http://www.w3.org/2000/svg" width="311" height="224" viewBox="0 0 311 224">
    <g fill="none" fill-rule="nonzero" opacity=".8">
        <path fill="#293DA3" d="M273.548 156.445a.768.768 0 0 0 0-.403c-.16-.382-.438-.7-.794-.908l-40.601-23.598a3.9 3.9 0 0 0-3.693 0l-18.458 10.726c-.715.403-.873.807-.808 1.16v1.894c-.1.72.808 1.21.808 1.21l40.609 23.606c.513.3 1.095.462 1.689.468a4.158 4.158 0 0 0 1.996-.468l16.64-9.66 1.847-1.073c.36-.16.644-.458.787-.829a.768.768 0 0 0 0-.403l-.022-1.722z" opacity=".3"/>
        <path fill="#4660FB" d="M277.724 158.564a.726.726 0 0 0 0-.404v-2.128l-4.387-.872-37.011-21.542a3.89 3.89 0 0 0-3.694 0l-17.142 9.967-2.147-.426v2.128c-.093.72.809 1.211.809 1.211l40.611 23.633a3.409 3.409 0 0 0 1.69.469 4.197 4.197 0 0 0 2.003-.469l16.613-9.67 1.846-1.075c.365-.155.65-.455.788-.83l.021.008z"/>
        <path fill="#07289E" d="M275.085 158.396l-16.615 9.663a3.926 3.926 0 0 1-3.694 0l-40.619-23.623s-1.847-1.074 0-2.163l18.462-10.736a3.898 3.898 0 0 1 3.694 0l40.619 23.622s1.847 1.074 0 2.163l-1.847 1.074z"/>
        <path fill="#FFF9FF" d="M269.441 153.034l-33.385-19.189-18.564 10.653 33.429 19.168z"/>
        <path fill="#FFF2FF" d="M269.174 156.413l-.307-.178a1.501 1.501 0 0 0-1.489 0l-9.425 5.444a.578.578 0 0 0 0 .999l.114.064a1.715 1.715 0 0 0 1.717 0l9.397-5.423a.521.521 0 0 0-.007-.906z"/>
        <ellipse cx="224.765" cy="137.659" fill="#FFF2FF" rx="1.039" ry="1"/>
        <path fill="#293DA3" d="M300.61 101.945L247.58 71.43l-46.711 22.477 62.614 35.777 37.127-21.373v-.824l-.697-.402.697-.408v-2.467l-1.25-.724 1.25-.717zM193.25 179.25c-.432.412-19.673 12.85-19.673 12.85s-24.799-14.826-23.943-14.56c.856.265 43.615 1.71 43.615 1.71z" opacity=".3"/>
        <path fill="#ECB329" d="M193.25 179.18l-23.287-13.434-20.35 11.764 20.458 11.815 5.72-.057z"/>
        <path fill="#C48A08" d="M173.117 185.858l2.816 3.408-5.541.06z"/>
        <path fill="#FF85AB" d="M307.537 103.405l-52.981-30.588-37.064 21.425 52.952 30.588z"/>
        <path fill="#FF85AB" d="M217.492 93.622v.821l52.952 30.387 37.093-21.284v-.82z"/>
        <path fill="#EF6C98" d="M307.537 102.712l-52.981-30.588-37.064 21.424 52.952 30.588z"/>
        <path fill="#FF85AB" d="M307.537 101.325l-52.981-30.588-37.064 21.424 52.952 30.588z"/>
        <path fill="#FFE5EA" d="M217.492 90.155v2.49l52.952 30.798 37.093-21.572v-2.497z"/>
        <path fill="#FFF9FF" d="M307.537 99.24l-52.981-30.584-37.064 21.429 52.952 30.584z"/>
        <path fill="#FF85AB" d="M307.537 97.85l-52.981-30.58-37.064 21.424 52.952 30.588z"/>
        <path fill="#EF6C98" d="M217.492 88.074v.821l52.952 30.387 37.093-21.29v-.815z"/>
        <path fill="#FF85AB" d="M307.537 97.164l-52.981-30.588L217.492 88l52.952 30.588z"/>
        <path fill="#EF6C98" d="M270.826 118.485v6.345l-53.334-30.41v-6.346z"/>
        <path fill="#87CEFF" d="M311 93.003l-52.98-30.588-37.065 21.424 52.953 30.588z"/>
        <path fill="#4660FB" d="M220.955 83.22v.82l52.953 30.387L311 93.144v-.821z"/>
        <path fill="#07289E" d="M311 92.31L258.02 61.72l-37.065 21.425 52.953 30.588z"/>
        <path fill="#87CEFF" d="M311 90.918l-52.98-30.584-37.065 21.43 52.953 30.583z"/>
        <path fill="#FFE4E3" d="M220.955 79.752v2.496l52.953 30.792L311 91.466V88.97z"/>
        <path fill="#FFF9FF" d="M311 88.835l-52.98-30.581-37.065 21.424 52.953 30.588z"/>
        <path fill="#87CEFF" d="M311 87.455l-52.98-30.588-37.065 21.424 52.953 30.588z"/>
        <path fill="#07289E" d="M220.955 77.672v.82l52.953 30.387L311 87.596v-.821z"/>
        <path fill="#4660FB" d="M311 86.761l-52.98-30.588-37.065 21.425 52.953 30.588z"/>
        <path fill="#FFF2FF" d="M236.886 77.292l21.13-12.103 37.053 21.185-21.15 12.103z"/>
        <path fill="#07289E" d="M274.29 108.082v6.345l-53.335-30.41v-6.345z"/>
        <path fill="#293DA3" d="M78.962 154.795l.072-.145.287.101.344.124.717.238.717.246.344.123.373.13c.1.037 3.119 1.036 3.534 1.202l38.775 22.71.552.782-.545 1.447-1.09.637-38.81-22.739c-1.054-.926-2.151-2.171-3.24-3.076l-2.03-1.78z" opacity=".3"/>
        <path fill="#342646" d="M79.55 153.776l.278.097.332.118.693.23.693.235.332.118.36.125-.782.874-1.912-1.658c-.035-.048-.014-.097.007-.139z"/>
        <path fill="#FFE2D7" d="M82.176 154.699c.104.041 3.318 1.088 3.463 1.165-.076.125-.124.145-.34.263a2.018 2.018 0 0 0-1.01 1.547c.008.317.106.625.284.887-1.032-.894-2.14-2.08-3.173-2.988-.11-.278.534-.923.776-.874z"/>
        <path fill="#433F6D" d="M84.282 157.674c0 .603.401.853.92.568.55-.357.9-.953.943-1.608 0-.597-.402-.853-.921-.562a2.08 2.08 0 0 0-.942 1.602z"/>
        <path fill="#DBAC37" d="M123.504 180.25l-38.786-22.378.545.77 38.786 22.378z"/>
        <path fill="#C48A08" d="M124.042 178.862l-38.786-22.379-.538 1.39 38.786 22.378z"/>
        <path fill="#ECB329" d="M125.13 178.235l-38.785-22.379-1.09.627 38.787 22.379z"/>
        <path fill="#433F6D" d="M124.042 178.862l-.538 1.389.545.769 1.089-.627.545-1.389-.552-.769z"/>
        <path fill="#293DA3" d="M68.687 213.598L0 176.036l44.717-8.903 72.34 18.77z" opacity=".3"/>
        <path fill="#806CBE" d="M66.202 166.646a2.39 2.39 0 0 1 1.944 0c.547.275.59.69 0 .976a2.39 2.39 0 0 1-1.937 0c-.491-.275-.59-.683-.007-.976zm1.404.293a1.04 1.04 0 0 0-.899-.049c-.238.116-.217.305.077.457.275.146.615.162.906.043.231-.116.21-.305-.084-.451z"/>
        <path fill="#FFF9FF" d="M66.429 167.13c.28.173.628.192.926.05.237-.137.215-.361-.086-.535a.935.935 0 0 0-.92-.058c-.244.138-.222.362.08.543z"/>
        <path fill="#806CBE" d="M63.62 167.636l-.61.354 6.65.694.603-.347z"/>
        <path fill="#FFF9FF" d="M66.881 169.205a.978.978 0 0 0-.94-.05c-.23.137-.209.36.1.541a.935.935 0 0 0 .919.051c.244-.145.223-.361-.079-.542z"/>
        <path fill="#AFC6F5" d="M61.76 170.817l-1.134.658a12.963 12.963 0 0 0 11.842 0c1.594-.925 2.47-2.169 2.478-3.449.007-1.28-.855-2.53-2.435-3.456a12.963 12.963 0 0 0-11.842 0l1.12.658a9.65 9.65 0 0 1 4.805-1.157 9.55 9.55 0 0 1 4.783 1.157c1.278.723 1.975 1.735 1.975 2.798s-.719 2.046-2.004 2.791a9.728 9.728 0 0 1-4.805 1.164 9.628 9.628 0 0 1-4.782-1.164z"/>
        <path fill="#4660FB" d="M6.966 173.514l2.93 1.713 41.258-23.982-2.923-1.713z"/>
        <path fill="#FFF9FF" d="M52.54 175.206a.935.935 0 0 0 .919.05c.237-.137.222-.361-.086-.542a.957.957 0 0 0-.92-.058c-.244.145-.215.369.087.55z"/>
        <path fill="#FFF9FF" d="M47.807 178.893c-1.321-.774-2.018-1.8-1.968-2.892.05-1.092.762-1.981 1.997-2.697a10.465 10.465 0 0 1 9.594 0c1.278.723 1.975 1.735 1.968 2.791-.007 1.056-.718 2.053-1.997 2.798a10.522 10.522 0 0 1-9.594 0z"/>
        <path fill="#FFF9FF" d="M52.992 177.28a.957.957 0 0 0-.94-.05c-.238.138-.209.362.093.542a.935.935 0 0 0 .919.051c.251-.145.23-.376-.072-.542z"/>
        <path fill="#4660FB" d="M15.29 178.387l1.357.788 41.264-23.982-1.357-.795zM18.212 180.093l1.365.803 41.264-23.99-1.364-.795zM46.715 172.675l1.12.658c-1.234.723-1.945 1.678-1.996 2.697-.05 1.02.647 2.118 1.968 2.892-1.321-.774-2.018-1.8-1.968-2.892.05-1.092.762-1.981 1.997-2.697a10.465 10.465 0 0 1 9.594 0c1.278.723 1.975 1.735 1.968 2.791-.007 1.056-.718 2.053-1.997 2.798l1.12.658a12.978 12.978 0 0 1-11.841.036 12.978 12.978 0 0 0 11.849 0c1.587-.918 2.47-2.169 2.47-3.456s-.854-2.523-2.434-3.449a11.85 11.85 0 0 0-5.91-1.446 11.978 11.978 0 0 0-5.94 1.41z"/>
        <path fill="#AFC6F5" d="M46.715 172.675c-1.53.89-2.405 2.068-2.47 3.326-.065 1.258.797 2.625 2.435 3.615a12.978 12.978 0 0 0 11.849 0l-1.128-.723a10.522 10.522 0 0 1-9.594 0c-1.321-.774-2.018-1.8-1.968-2.892.05-1.092.762-1.981 1.997-2.697l-1.12-.629z"/>
        <path fill="#4660FB" d="M21.15 181.814l1.357.795 41.257-23.99-1.357-.787z"/>
        <path fill="#FFF9FF" d="M38.643 183.275a.95.95 0 0 0 .927.057c.237-.137.215-.361-.093-.535a.935.935 0 0 0-.92-.058c-.244.138-.215.362.086.536z"/>
        <path fill="#FFF9FF" d="M33.868 187.027c-1.329-.774-2.025-1.8-1.975-2.892.05-1.092.761-1.981 2.004-2.697a9.728 9.728 0 0 1 4.804-1.164 9.628 9.628 0 0 1 4.783 1.164c1.278.723 1.975 1.735 1.975 2.79 0 1.056-.718 2.054-2.004 2.799a9.75 9.75 0 0 1-4.804 1.157 9.621 9.621 0 0 1-4.783-1.157z"/>
        <path fill="#FFF9FF" d="M39.096 185.357a.964.964 0 0 0-.934-.05c-.237.137-.215.36.086.541a.95.95 0 0 0 .927.051c.244-.145.223-.361-.08-.542z"/>
        <path fill="#AFC6F5" d="M90.185 178.488l13.594 7.946 3.828-2.22-13.594-7.953z"/>
        <path fill="#4660FB" d="M32.776 180.78l1.12.658c-1.242.723-1.953 1.677-2.003 2.697-.05 1.02.646 2.118 1.975 2.892-1.329-.774-2.025-1.8-1.975-2.892.05-1.092.761-1.981 2.004-2.697a10.45 10.45 0 0 1 9.587 0l1.134-.658a11.9 11.9 0 0 0-5.917-1.446 11.928 11.928 0 0 0-5.925 1.446zM92.583 184.916l6.887 4.027 3.828-2.227-6.887-4.027z"/>
        <path fill="#AFC6F5" d="M85.639 190.91l5.207 3.043 3.82-2.22-5.2-3.043z"/>
        <path fill="#4660FB" d="M45.961 196.332l1.358.788 41.257-23.982-1.357-.795zM49.81 198.58l1.358.796 41.265-23.982-1.358-.796zM57.53 200.569l1.358.795 19.39-11.272-1.357-.795zM60.77 202.463l1.357.795 19.39-11.271-1.357-.796zM64.001 204.357l1.358.796 19.397-11.272-1.358-.795zM66.78 205.977l1.358.795 19.39-11.271-1.358-.796z"/>
        <path fill="#FFF9FF" d="M116.649 185.4l-48.202 28.038L.639 173.767l48.195-28.024 67.815 39.657zm-58.091-12.725a11.85 11.85 0 0 0-5.91-1.446c-2.068-.039-4.111.46-5.933 1.446-1.53.89-2.405 2.068-2.47 3.326-.065 1.258.797 2.625 2.435 3.615a12.978 12.978 0 0 0 11.849 0c1.587-.918 2.47-2.169 2.47-3.456s-.854-2.523-2.434-3.449l-.007-.036zm-13.94 8.105a11.9 11.9 0 0 0-5.917-1.446 11.928 11.928 0 0 0-5.925 1.446c-1.537.89-2.413 2.068-2.477 3.326-.065 1.258.797 2.625 2.434 3.615a11.857 11.857 0 0 0 5.918 1.446 11.95 11.95 0 0 0 5.924-1.446c1.587-.918 2.47-2.169 2.478-3.456.007-1.287-.855-2.523-2.435-3.449v-.036zm27.915-16.21a12.963 12.963 0 0 0-11.842 0c-1.53.89-2.413 2.075-2.478 3.326-.065 1.25.804 2.625 2.434 3.615a12.963 12.963 0 0 0 11.843 0c1.594-.925 2.47-2.169 2.477-3.449.008-1.28-.854-2.53-2.434-3.456v-.036zM9.896 175.227l41.258-23.982-2.923-1.713-41.265 23.982 2.93 1.713zm9.68 5.669l41.265-23.99-1.364-.795-41.265 23.99 1.365.795zm-5.86-3.449l41.265-23.99-1.357-.795-41.265 24.011 1.358.774zm2.93 1.706l41.258-23.982-1.357-.795-41.258 24.011 1.358.788v-.022zm5.86 3.456l41.258-23.96-1.357-.788-41.258 23.924 1.358.795v.03zm28.662 16.738l41.265-23.982-1.358-.796-41.264 24.012 1.357.795v-.029zm-3.85-2.227l41.258-24.011-1.357-.795-41.258 24.018 1.358.788zm-4.165-2.43l41.265-23.989-1.357-.788-41.265 23.983 1.357.795zm60.626-8.256l3.828-2.22-13.594-7.953-3.828 2.22 13.594 7.953zm-8.617 5.018l3.827-2.227-10.248-5.994-3.827 2.22 10.24 5.994.008.007zm4.301-2.516l3.828-2.227-6.887-4.027-3.828 2.227 6.887 4.027zM62.12 203.25l19.39-11.271-1.358-.796-19.39 11.272 1.358.795zm-3.232-1.887l19.39-11.272-1.357-.795-19.39 11.286 1.357.796v-.015zm6.463 3.803l19.39-11.279-1.357-.788-19.39 11.272 1.357.795zm2.78 1.62l19.39-11.272-1.358-.795-19.375 11.257 1.357.795-.014.015zm22.722-12.826l3.827-2.227-5.206-3.044-3.828 2.22 5.207 3.05z"/>
        <path fill="#4660FB" d="M60.662 164.57c-1.53.89-2.413 2.075-2.478 3.326-.064 1.25.805 2.625 2.435 3.615l1.134-.658c-1.328-.773-2.025-1.8-1.967-2.892.057-1.092.76-1.974 1.996-2.69l-1.12-.7z"/>
        <path fill="#FFF9FF" d="M73.344 168.048c0-1.063-.718-2.053-1.975-2.798a9.55 9.55 0 0 0-4.782-1.157 9.649 9.649 0 0 0-4.826 1.135c-1.236.723-1.947 1.678-1.997 2.69-.05 1.012.64 2.125 1.968 2.892a9.628 9.628 0 0 0 4.783 1.164 9.728 9.728 0 0 0 4.804-1.164c1.307-.738 2.011-1.728 2.025-2.762z"/>
        <path fill="#4660FB" d="M12.36 176.673l1.357.796 41.264-23.99-1.357-.795z"/>
        <path fill="#AFC6F5" d="M32.776 180.78c-1.537.89-2.413 2.068-2.477 3.326-.065 1.258.797 2.625 2.434 3.615a11.857 11.857 0 0 0 5.918 1.446 11.95 11.95 0 0 0 5.924-1.446c1.587-.918 2.47-2.169 2.478-3.456.007-1.287-.855-2.523-2.435-3.449l-1.134.658c1.278.723 1.975 1.735 1.975 2.791 0 1.056-.718 2.053-2.004 2.798a9.75 9.75 0 0 1-4.804 1.157 9.621 9.621 0 0 1-4.783-1.157c-1.329-.774-2.025-1.8-1.975-2.892.05-1.092.761-1.981 2.004-2.697l-1.12-.694zM84.92 185.458l10.234 5.994 3.828-2.227-10.24-5.987z"/>
        <path fill="#4660FB" d="M41.796 193.896l1.357.795 41.265-23.99-1.357-.788z"/>
        <path fill="#293DA3" d="M133.818 163.666L43.637 124.22l90.75-50.017s93.818 40.318 86.896 42.164c-6.921 1.846-87.465 47.298-87.465 47.298z" opacity=".3"/>
        <ellipse cx="185.63" cy="79.406" fill="#293DA3" opacity=".3" rx="19.394" ry="7.975"/>
        <ellipse cx="36.364" cy="125.523" fill="#293DA3" opacity=".3" rx="21.818" ry="9.015"/>
        <path fill="#FFF9FF" d="M48.281 96.396l-17.804 6.01v22.498c0 4.557 6.045 8.248 13.503 8.248 7.457 0 13.51-3.691 13.51-8.248v-22.499l-9.209-6.009z"/>
        <ellipse cx="43.983" cy="101.944" fill="#D3BAE7" rx="13.507" ry="8.322"/>
        <path fill="#752939" d="M32.053 106.373c2.383 2.337 6.65 3.893 11.553 3.893 4.903 0 9.142-1.556 11.553-3.893.167-.472.252-.97.253-1.47 0-3.936-5.271-7.12-11.777-7.12-6.506 0-11.77 3.184-11.77 7.12-.02.497.044.994.188 1.47z"/>
        <path fill="#BCBACE" d="M43.98 94.584c6.809 0 12.559 3.374 12.559 7.368 0 3.993-5.765 7.36-12.56 7.36-6.794 0-12.537-3.374-12.537-7.368 0-3.993 5.75-7.36 12.538-7.36zm0-.954c-7.458 0-13.503 3.723-13.503 8.322 0 4.598 6.067 8.314 13.503 8.314s13.51-3.724 13.51-8.322c0-4.598-6.031-8.322-13.51-8.322v.008z"/>
        <path fill="#1A685A" d="M55.412 64.495c-1.13 2.4-1.15 5.145-1.144 7.796v8.923c0 3.384 0 6.826-.919 10.06-.92 3.232-2.895 6.372-5.986 7.902-1.513.719-3.417 1.035-4.85.144a5.174 5.174 0 0 1-1.52-1.617c-3.446-5.36-.26-12.559 2.215-17.703a45.623 45.623 0 0 1 12.204-15.505z"/>
        <path fill="#409682" d="M30.03 88.911c-.852-11.075-.275-22.351-3.017-33.119a44.371 44.371 0 0 1 9.863 32.604c2.468-7.654 4.964-15.464 4.921-23.497 0-3.845 2.36-12.887 2.36-12.887s1.4 8.67 2.69 12.887a37.768 37.768 0 0 1 1.227 8.913l.722 13.145c3.708-11.04 13.543-26.21 13.543-26.21s-3.608 28.93-5.542 35.552c-2.164 7.51-9.257 12.615-17.374 10.84-7.38-1.619-8.946-12.171-9.394-18.228z"/>
        <path fill="#4EAF9D" d="M35.307 100.147c-1.532-4.255-.107-8.93.853-13.352 1.139-5.275 1.59-10.79.43-16.058a242.02 242.02 0 0 1 10.156 25.278c.716 2.23 1.475 4.646.759 6.89-.673 2.106-4.448 5.84-6.955 5.21-1.97-.492-4.57-6.1-5.243-7.968z"/>
        <path fill="#FFF9FF" d="M196.506 47.851l-17.802 6.002v22.508c0 4.552 6.044 8.246 13.506 8.246 7.463 0 13.507-3.694 13.507-8.246V53.853l-9.21-6.002z"/>
        <ellipse cx="191.518" cy="54.093" fill="#FFF9FF" rx="13.507" ry="8.322"/>
        <path fill="#A04A58" d="M180.313 58.521c2.387 2.333 6.655 3.894 11.537 3.894 4.881 0 9.136-1.56 11.537-3.894.162-.46.248-.944.252-1.431 0-3.93-5.27-7.158-11.775-7.158-6.504 0-11.775 3.192-11.775 7.158-.004.486.071.97.224 1.431z"/>
        <path fill="#BCBACE" d="M191.518 46.732c6.807 0 12.557 3.37 12.557 7.357 0 3.988-5.757 7.365-12.557 7.365-6.8 0-12.557-3.37-12.557-7.365s5.757-7.357 12.557-7.357zm0-.961c-7.462 0-13.507 3.726-13.507 8.318s6.045 8.326 13.507 8.326 13.506-3.726 13.506-8.326c0-4.6-6.044-8.318-13.506-8.318z"/>
        <path fill="#FFF9FF" d="M203.11 62.71l-.507-.295H200.243v2.346a8.56 8.56 0 0 1 3.831 7.105 3.728 3.728 0 0 1-.874 2.412 4.37 4.37 0 0 1-.53 0h-2.494v2.007a5.91 5.91 0 0 0 2.935-.782h2.442a5.72 5.72 0 0 0 2.935-5.017 10.609 10.609 0 0 0-5.377-7.776z"/>
        <path fill="#BCBACE" d="M201.356 64.777l-.487-.282v2.24a8.197 8.197 0 0 1 3.62 6.786 3.632 3.632 0 0 1-3.62 3.621v1.917a5.543 5.543 0 0 0 5.54-5.538 10.107 10.107 0 0 0-5.053-8.744z"/>
        <path fill="#4660FB" d="M70.842 45.605L148.934.948a6.94 6.94 0 0 1 4.799-.826c2.209.51 4.317 1.207 4.281 3.14l.123 72.46-6.872 4.052c2.245 1.092 70.795 34.4 70.91 34.478l.166 2.794a3.382 3.382 0 0 1-1.684 2.924c-11.67 6.745-80.027 46.193-80.027 46.193a7.293 7.293 0 0 1-7.267 0l-64.967-37.48a2.197 2.197 0 0 1-1.094-1.897l-.115-74.91a7.231 7.231 0 0 1 3.655-6.271z"/>
        <path fill="#07289E" d="M69.958 126.91l88.472-50.52.187-72.288a2.715 2.715 0 0 0-4.062-2.355l-81.62 46.75a5.746 5.746 0 0 0-2.87 4.955l-.107 73.458z"/>
        <path fill="#07289E" d="M154.461 5.548L73.593 52.296l-.172 68.373 81.04-46.85z"/>
        <path fill="#FFF9FF" d="M69.958 126.653l88.466-51.062 62.565 36.19a2.723 2.723 0 0 1 0 4.705l-81.445 47.103a5.74 5.74 0 0 1-5.744 0l-63.842-36.936z"/>
        <path fill="#4660FB" d="M94.2 128.64l-4.473 2.431-4.531-2.424 4.48-2.43zM101.127 124.48l-4.48 2.43-4.525-2.424 4.48-2.43zM107.36 121.026l-4.48 2.417-4.524-2.417 4.473-2.438zM113.595 116.851l-4.473 2.43-4.532-2.423 4.48-2.43zM120.521 113.377l-4.48 2.437-4.524-2.424 4.48-2.43zM126.755 109.91l-4.48 2.437-4.524-2.424 4.473-2.43zM133.682 105.748l-4.466 2.438-4.539-2.424 4.473-2.43zM139.915 102.28l-4.48 2.438-4.524-2.424c1.795-.973 2.685-1.463 4.48-2.43l4.524 2.417zM146.15 98.127c-1.796.973-2.686 1.464-4.481 2.43l-4.524-2.417 4.473-2.437 4.531 2.424zM153.076 94.66l-4.477 2.43-4.528-2.417 4.477-2.438zM159.31 91.192l-4.473 2.43-4.532-2.417 4.48-2.437zM166.236 87.03l-4.48 2.431-4.524-2.417 4.473-2.437zM100.434 132.108l-4.48 2.43-4.524-2.416 4.48-2.438zM107.36 127.947l-4.48 2.43-4.524-2.416 4.473-2.438zM113.595 124.48l-4.473 2.43-4.532-2.424c1.795-.966 2.685-1.457 4.48-2.43l4.525 2.424zM119.829 121.012l-4.48 2.43-4.525-2.423 4.48-2.43zM126.755 116.858l-4.495 2.424-4.51-2.424 4.46-2.43zM132.989 113.384l-4.473 2.43-4.532-2.424 4.48-2.43zM139.915 109.216l-4.48 2.437-4.524-2.424 4.48-2.43zM146.15 105.748l-4.477 2.438-4.528-2.424 4.476-2.43zM152.383 102.28l-4.473 2.438-4.531-2.424 4.48-2.43zM159.31 98.127l-4.473 2.43-4.532-2.424c1.795-.973 2.685-1.463 4.48-2.43l4.525 2.424zM165.543 94.652l-4.494 2.438-4.51-2.424 4.488-2.43z"/>
        <path fill="#4660FB" d="M171.777 90.651l-7.34 4.358-4.435-2.584 7.348-4.35zM109.439 133.667l-7.321 4.34-4.454-2.597 7.32-4.339z"/>
        <path fill="#4660FB" d="M113.595 131.415l-4.473 2.43-4.532-2.417 4.48-2.437zM119.829 127.947l-4.48 2.43-4.525-2.416 4.48-2.438zM126.062 124.48l-4.48 2.43-4.524-2.417 4.473-2.437zM132.989 120.319l-4.473 2.43-4.532-2.417 4.48-2.437zM139.223 116.851l-4.48 2.43-4.525-2.423 4.48-2.43zM146.15 112.69l-4.481 2.43-4.524-2.423 4.473-2.43zM152.383 109.223l-4.473 2.43-4.531-2.424 4.48-2.43zM158.617 105.755l-4.473 2.43-4.532-2.423 4.48-2.43zM165.543 101.587l-4.48 2.438-4.524-2.424 4.473-2.43zM171.777 98.12l-4.476 2.437-4.528-2.424 4.476-2.43zM178.704 93.966l-4.473 2.43-4.532-2.43 4.48-2.424zM112.902 139.036l-4.477 2.438-4.527-2.424 4.476-2.43zM119.829 135.569l-4.48 2.437-4.525-2.424 4.48-2.43zM126.062 131.408l-4.48 2.437-4.524-2.424 4.473-2.43zM132.296 127.947l-4.473 2.43-4.531-2.416 4.48-2.438zM139.223 123.786l-4.48 2.43-4.525-2.416 4.48-2.438zM145.457 120.319l-4.48 2.43-4.525-2.417 4.473-2.437zM152.383 116.851l-4.473 2.43-4.531-2.416 4.48-2.438zM158.617 112.69l-4.473 2.43-4.532-2.423c1.796-.967 2.686-1.457 4.48-2.43l4.525 2.423zM165.543 109.223l-4.48 2.43-4.524-2.424 4.473-2.43zM171.777 105.062l-4.48 2.43-4.524-2.424 4.473-2.43zM180.782 99.713l-7.264 4.312-4.511-2.623 7.264-4.312z"/>
        <path fill="#4660FB" d="M184.938 98.127c-1.795.966-2.686 1.457-4.48 2.43l-4.525-2.424 4.473-2.43 4.532 2.424zM120.521 143.204l-4.477 2.43-4.527-2.423 4.476-2.43zM126.755 139.036l-4.47 2.438-4.534-2.424 4.49-2.43zM132.989 135.569l-4.491 2.437-4.514-2.424 4.463-2.43zM172.47 113.465l-37.08 21.074-4.48-2.505L168 110.96zM178.704 109.223l-4.48 2.43-4.525-2.417 4.473-2.437zM185.63 105.755l-4.473 2.43-4.531-2.423c1.795-.967 2.685-1.457 4.48-2.43l4.524 2.423zM191.864 101.594l-4.48 2.43-4.524-2.423 4.473-2.43zM141.993 136.244l30.417-17.656 17.376 10.77-30.402 17.664z"/>
        <path fill="#806CBE" d="M141.993 49.753l5.542-3.289v.24l-5.451 3.228zM137.94 52.706l-.103-.17 2.078-1.217-.102.288zM144.764 54.606l2.77-1.9v.246l-2.687 1.834z"/>
        <g>
            <path fill="#8E90FF" d="M144.817 54.702l2.832 5.26-3.49 2.021-9.738 5.637 4.768-13.513.91-2.579.102-.283 1.098-3.1 1.011 1.883.087.167 2.334 4.347z"/>
            <path fill="#AFC6F5" d="M138.243 52.608l.946 1.5-4.768 13.512-3.554-1.347 1.69-4.47.109-.276 2.774-7.296.108-.29 1.33-3.5 1.264 2z"/>
            <path fill="#8E90FF" d="M127.233 64.889l3.634 1.384 3.554 1.347-5.223 3.029-9.124 5.282 5.953-9.318 1.033-1.623.086-.13z"/>
            <path fill="#806CBE" d="M125.47 65.91l-.115-.152 7.31-4.231-.108.275-5.324 3.087-.087-.03-.086.131z"/>
            <path fill="#AFC6F5" d="M125.47 65.91l.557.703-5.953 9.318-1.387-2.71 1.856-4.456.116-.283 2.362-5.687 2.334 2.963z"/>
            <path fill="#806CBE" d="M117.35 70.613l-.08-.167 3.389-1.964-.116.283zM115.017 66.055l-.087-.174 20.618-11.94-.108.29z"/>
            <path fill="#8E90FF" d="M117.35 70.613l1.337 2.608 1.387 2.71-3.31 1.92-8.618 4.985 3.952-12.817.845-2.768.087-.268.925-3.007.975 1.905.087.174 2.254 4.391z"/>
            <path fill="#806CBE" d="M111.094 68.33l-.101-.166 2.037-1.181-.087.268zM108.204 63.483l39.387-22.809v.225l-39.286 22.75zM147.577 34.77v.224L81.329 73.35l-.253.145v-.224l.253-.145z"/>
        </g>
        <path fill="#806CBE" d="M81.04 78.831l.253-.147 25.375-14.882-.116.294-25.259 14.816-.253.147zM101.234 73.51l-.107-.137 2.078-1.25-.095.263zM81.733 90.655l.245-.13 4.603-2.45-.14.27-4.463 2.368-.245.135z"/>
        <g>
            <path fill="#8E90FF" d="M101.616 73.251l1.095 1.427 5.694 7.428-11.026 6.524-8.893 5.258 3.832-9.641 2.85-7.18.121-.299 3.078-7.748 3.128 4.078z"/>
            <path fill="#AFC6F5" d="M89.531 81.836l2.787 2.41-3.832 9.642-6.398 3.786 4.507-9.597.142-.306z"/>
            <path fill="#806CBE" d="M81.797 84.749l.256-.153 13.236-7.828-.12.299-13.116 7.755-.25.153z"/>
        </g>
        <path fill="#AFC6F5" d="M111.21 68.33l1 1.651-3.936 12.545-5.762-7.233 1.036-2.61.108-.283 3.05-7.673.115-.284.806-2.028.705 1.17.1.163 2.677 4.418z"/>
        <path fill="#806CBE" d="M147.535 28.433v.207L81.04 66.576v-.214zM81.299 66.618l.014 6.305-.251.145v.224l.251-.145.014 5.663-.251.144v.224l.251-.144.022 6.038-.259.151.008.224.251-.151.014 5.67-.251.144v.216l.251-.151.022 6.868 66.15-38.402v.296l-66.402 38.54-.093-31.715z"/>
        <path fill="#FFF9FF" d="M154.289 1.749l-82.01 46.758a5.742 5.742 0 0 0-2.884 4.955l-.13 73.448 2.675-1.522c15.964-23.444 76.047-111.91 83.906-123.991a2.626 2.626 0 0 0-1.557.352z" opacity=".2"/>
        <path fill="#293DA3" d="M279.138 73.838c-.431.413-19.672 12.85-19.672 12.85s-24.799-14.826-23.943-14.56c.855.265 43.615 1.71 43.615 1.71z" opacity=".3"/>
        <path fill="#ECB329" d="M279.138 73.768l-23.286-13.434-20.35 11.765 20.458 11.814 5.719-.057z"/>
        <path fill="#C48A08" d="M259.006 80.446l2.816 3.408-5.541.06z"/>
        <path fill="#293DA3" d="M93.508 211.15c-.432.413-19.672 12.85-19.672 12.85s-24.8-14.825-23.944-14.56c.856.265 43.616 1.71 43.616 1.71z" opacity=".3"/>
        <path fill="#ECB329" d="M93.508 211.774l-23.286-13.433-20.351 11.764L70.33 221.92l5.719-.058z"/>
        <path fill="#C48A08" d="M73.376 218.452l2.816 3.408-5.542.06z"/>
    </g>
</svg>
