<svg xmlns="http://www.w3.org/2000/svg" width="163" height="224" viewBox="0 0 163 224">
    <g fill="none" fill-rule="nonzero" opacity=".8">
        <g transform="translate(0 12.6)">
            <ellipse cx="60.457" cy="179.343" fill="#293DA3" opacity=".146" rx="60.457" ry="31.514"/>
            <path fill="#07289E" d="M60.44 166.446a22.864 22.864 0 0 0-1.74 6.917 4.547 4.547 0 0 0 1.338 3.49 54.427 54.427 0 0 0 6.174 1.342c1.435 0 6.11 3.814 9.512 4.057 3.402.242 7.771 1.276 8.239-1.423.467-2.698-16.8-13.43-16.8-13.43l-6.722-.953z"/>
            <path fill="#68C1E0" d="M80.093 23.585l3.612 4.056s9.415 34.212 9.125 37.17c-.29 2.957-4.047 3.41-6.368 2.553-2.322-.856-8.674-22.043-8.674-22.043l2.305-21.736z"/>
            <path fill="#EEBCC5" d="M61.166 158.204l-.693 9.309s-.193 2.214 2.79 2.36a3.917 3.917 0 0 0 3.9-2.473l2.113-13.899-8.11 4.703zM40.982 166.543l-1.758 8.34s.549 2.957 3.225 2.553c2.676-.404 3.498-4.04 3.498-4.04l1.612-8.889-6.577 2.036z"/>
            <path fill="#07289E" d="M39.499 173.557s.274 2.424 2.418 2.279a6.946 6.946 0 0 0 4.03-2.424l-.532 8.63s-1.209 12.928-4.981 14.27c-3.773 1.34-4.563-5.786-4.563-5.786l3.628-16.969zM46.657 77.19s.709 13.543 1.418 16.032c.71 2.488-1.418 35.553-1.418 35.553s-7.465 39.174-7.11 41.307c.355 2.134 6.449 1.067 7.819-1.066s10.302-34.536 11.72-43.748c1.42-9.211 5.692-30.705 5.692-30.705s.354 25.987.354 28.136c0 2.15-4.627 40.935-4.627 40.935s.178 1.148 3.757 1.616a4.364 4.364 0 0 0 4.079-1.616c2.128-3.474 2.82-11.086 2.82-11.086s10.303-44.151 9.674-48.773c-.629-4.622 1.419-35.554 1.419-35.554l-5.675-2.15L46.657 77.19z"/>
            <path fill="#B5E7FE" d="M60.183 24.684s11.801-3.814 16.638-2.602a8.745 8.745 0 0 1 6.851 6.06c.403 1.616-1.612 40.806-1.612 40.806S61.102 86.321 52.235 81.877c-6.449-3.232-6.916-6.853-6.723-8.614.153-1.07.218-2.151.193-3.232l-1.128-34.617 15.606-10.73z"/>
            <path fill="#68C1E0" d="M80.013 54.112l-24.457 4.849-5.11-25.858-.565-1.325-5.304 3.636 1.128 34.617c.025 1.08-.04 2.162-.193 3.232-.161 1.47.177 4.25 4.03 6.998 8.061-4.186 24.473-13.204 31.035-19.927 3.74-3.846-.564-6.222-.564-6.222z"/>
            <path fill="#B5E7FE" d="M56.265 47.212s6.74-21.236 3.918-22.448c0 0-16.412 5.479-18.427 9.923-2.016 4.444-1.613 8.388-3.402 15.256 0 0-4.224 14.739-3.628 18.585.597 3.846 4.644 5.85 14.107 2.02 9.464-3.83 33.05-13.139 33.05-13.139l-.194-4.234-27.81 2.941 2.386-8.904z"/>
            <path fill="#FFF" d="M63.65 24.587s-4.322 1.212-4.725 2.214c-.403 1.002 2.822 5.64 6.223 8.16a21.8 21.8 0 0 0 5.627 3.233 18.808 18.808 0 0 0 3.82-11.313c-.096-6.448-10.946-2.294-10.946-2.294z"/>
            <path fill="#EEBCC5" d="M83.834 15.876c-2.116 6.15-8.804 9.417-14.94 7.298-6.136-2.12-9.396-8.823-7.284-14.974 2.113-6.152 8.8-9.422 14.937-7.305 6.134 2.125 9.394 8.827 7.287 14.98z"/>
            <path fill="#EEBCC5" d="M75.225 15.197l-3.999 12.12a7.547 7.547 0 0 1-8.431.89 1.893 1.893 0 0 1-.92-2.101l2.983-11.765 10.367.856z"/>
            <path fill="#07289E" d="M82.592 12.547a2.88 2.88 0 0 0 1.758-.469C84.374 6.018 79.802.931 73.787.324c-6.015-.606-11.506 3.467-12.685 9.41.462.26.972.426 1.5.486 1.208.097 5.158-1.503 4.836-3.152l.532 2.408a2.859 2.859 0 0 0 1.725-2.1 17.325 17.325 0 0 0 12.897 5.17z"/>
            <path fill="#68C1E0" d="M89.54 71.275c-3.221-.018-5.827-2.636-5.835-5.866.009-3.227 2.616-5.842 5.836-5.85 3.226 0 5.843 2.616 5.852 5.85-.009 3.236-2.624 5.857-5.852 5.866z"/>
            <path fill="#EEBCC5" d="M66.18 10.203a3.58 3.58 0 0 1-3.168 2.413 3.578 3.578 0 0 1-3.435-2.013 3.594 3.594 0 0 1 .544-3.951 3.573 3.573 0 0 1 3.85-1.006 3.566 3.566 0 0 1 2.05 1.818 3.58 3.58 0 0 1 .16 2.74zM97.57 66.605a4.358 4.358 0 0 1-4.353 4.363 4.358 4.358 0 0 1-4.353-4.363 4.358 4.358 0 0 1 4.353-4.364c1.154 0 2.261.46 3.078 1.278a4.369 4.369 0 0 1 1.274 3.086zM89.073 54.613a4.364 4.364 0 0 1-2.69 4.033 4.345 4.345 0 0 1-4.746-.953 4.371 4.371 0 0 1-.934-4.76 4.353 4.353 0 0 1 4.033-2.683 4.358 4.358 0 0 1 4.337 4.363z"/>
            <path fill="#EEBCC5" d="M91.701 58.524l-3.128-4.848a1.207 1.207 0 0 0-1.612-.355 1.23 1.23 0 0 0-.354 1.696l3.127 4.849a1.209 1.209 0 0 0 2.225-.03c.183-.45.082-.966-.258-1.312z"/>
            <path fill="#FFF" d="M99.762 56.116L85.591 64.78l-3.708 4.347 14.332-8.42z"/>
            <path fill="#07289E" d="M99.762 56.116l.645.84-3.37 4.736-14.719 8.29-.435-.856 14.332-8.42z"/>
        </g>
        <path fill="#EC5569" d="M151.805.28h-34.769c-5.78.009-10.463 4.678-10.463 10.435V33.42c0 5.756 4.682 10.426 10.463 10.435h4.997a.405.405 0 0 1 .42.418v11.273c.005.597.374 1.133.932 1.352.558.22 1.194.08 1.608-.354l11.805-12.496a.438.438 0 0 1 .307-.129h14.7c5.788 0 10.48-4.672 10.48-10.435v-22.77c0-5.763-4.692-10.435-10.48-10.435z"/>
        <path fill="#E63950" d="M126.869 39.959a.434.434 0 0 0-.42-.451h-4.852c-5.844-.253-10.384-5.162-10.156-10.983V4.612c.006-1.002.147-1.999.42-2.963a10.395 10.395 0 0 0-5.288 9.066V33.42c0 5.756 4.682 10.426 10.463 10.435h4.997a.405.405 0 0 1 .42.418v11.273c.005.597.374 1.133.932 1.352.558.22 1.194.08 1.608-.354l1.876-1.98V39.958z"/>
        <path fill="#EC5569" d="M146.194 13.823a6.823 6.823 0 0 0-4.852-2.023 6.823 6.823 0 0 0-4.851 2.023l-1.488 1.497a.94.94 0 0 1-1.31 0l-1.472-1.481a6.839 6.839 0 0 0-4.851-2.016c-1.823 0-3.57.726-4.852 2.016a6.781 6.781 0 0 0-2.024 4.831c0 1.815.729 3.555 2.024 4.831l11.24 10.999a.94.94 0 0 0 1.31 0l11.126-11.096a6.733 6.733 0 0 0 2.004-4.79c0-1.8-.721-3.524-2.004-4.791z"/>
        <path fill="#FFF" d="M147.973 13.823a6.823 6.823 0 0 0-4.852-2.023 6.823 6.823 0 0 0-4.851 2.023l-1.504 1.497a.925.925 0 0 1-1.294 0l-1.488-1.481a6.823 6.823 0 0 0-4.851-2.023 6.823 6.823 0 0 0-4.852 2.023 6.765 6.765 0 0 0-2.032 4.831c0 1.816.732 3.557 2.032 4.831l11.11 11.063a.925.925 0 0 0 1.294 0l11.142-11.095a6.766 6.766 0 0 0 2.097-4.793 6.764 6.764 0 0 0-1.951-4.853z"/>
        <path fill="#DCE6EB" d="M127.856 23.534a6.781 6.781 0 0 1-2.025-4.831c0-1.815.73-3.555 2.025-4.831a6.67 6.67 0 0 1 3.04-1.74 6.796 6.796 0 0 0-6.598 1.74 6.765 6.765 0 0 0-2.031 4.83c0 1.817.732 3.557 2.031 4.832l11.11 11.063a.925.925 0 0 0 1.294 0l1.132-1.127-9.978-9.936z"/>
    </g>
</svg>
