<svg xmlns="http://www.w3.org/2000/svg" width="345" height="289" viewBox="0 0 345 289">
    <defs>
        <linearGradient id="a" x1="20.139%" x2="71.007%" y1="77.839%" y2=".276%">
            <stop offset="0%" stop-color="#484EC2" stop-opacity="0"/>
            <stop offset="100%" stop-color="#07289E" stop-opacity=".7"/>
        </linearGradient>
        <linearGradient id="b" x1="84.688%" x2="-28.355%" y1="85.35%" y2="25.435%">
            <stop offset="0%" stop-color="#484EC2" stop-opacity="0"/>
            <stop offset="100%" stop-color="#07289E" stop-opacity=".7"/>
        </linearGradient>
        <linearGradient id="c" x1="97.71%" x2="14.122%" y1="72.603%" y2=".171%">
            <stop offset="0%" stop-color="#484EC2" stop-opacity="0"/>
            <stop offset="98%" stop-color="#1F40E5" stop-opacity=".5"/>
        </linearGradient>
        <linearGradient id="d" x1="50.884%" x2="49.92%" y1="92.599%" y2="27.586%">
            <stop offset="0%" stop-color="#FFF" stop-opacity="0"/>
            <stop offset="97%" stop-color="#AAC7FD" stop-opacity=".79"/>
        </linearGradient>
        <linearGradient id="e" x1="40.156%" x2="51.875%" y1="149.458%" y2="-11.552%">
            <stop offset="0%" stop-color="#FFF" stop-opacity="0"/>
            <stop offset="97%" stop-color="#AAC7FD" stop-opacity=".79"/>
        </linearGradient>
        <linearGradient id="f" x1="80.941%" x2="27.351%" y1="95.598%" y2="23.862%">
            <stop offset="0%" stop-color="#FFF" stop-opacity="0"/>
            <stop offset="97%" stop-color="#AAC7FD" stop-opacity=".79"/>
        </linearGradient>
        <linearGradient id="g" x1="165.406%" x2="34.594%" y1="82.426%" y2="52.197%">
            <stop offset="0%" stop-color="#FFF" stop-opacity="0"/>
            <stop offset="97%" stop-color="#AAC7FD" stop-opacity=".79"/>
        </linearGradient>
        <linearGradient id="h" x1="-5.234%" x2="95.421%" y1="67.638%" y2="46.171%">
            <stop offset="0%" stop-color="#FFF" stop-opacity="0"/>
            <stop offset="97%" stop-color="#AAC7FD" stop-opacity=".79"/>
        </linearGradient>
    </defs>
    <g fill="none" fill-rule="nonzero" opacity=".8">
        <ellipse cx="208.5" cy="205.5" fill="#293DA3" opacity=".146" rx="80.5" ry="13.5"/>
        <path fill="#536FF9" d="M20 165.145c-3.167-.73-6.298 1.377-7 4.71 3.167.73 6.298-1.377 7-4.71zM11 169.954c-.413-3.701-3.546-6.344-7-5.907.417 3.699 3.547 6.34 7 5.907zM20 157.145c-3.167-.73-6.298 1.377-7 4.712 3.167.726 6.295-1.38 7-4.712zM11.998 151c-1.28 1.193-1.998 2.812-1.998 4.5 0 1.688.719 3.307 1.998 4.5 1.282-1.192 2.002-2.811 2.002-4.5s-.72-3.308-2.002-4.5zM11 161.961c-.421-3.084-3.55-5.284-7-4.922.421 3.084 3.55 5.284 7 4.922z"/>
        <path fill="#07289E" d="M11 155h.39v22H11z"/>
        <path fill="#07289E" d="M11.027 162L7 158.37l.156-.193 3.88 3.505L15.86 158l.14.212zM11.027 171L7 167.37l.156-.193 3.88 3.505L15.86 167l.14.212z"/>
        <path fill="#6577FC" d="M4 179.832c.013-.981.587-1.851 1.442-2.186.855-.335 1.813-.065 2.407.679a9.225 9.225 0 0 1 1.062-2.126c.448-.66 1.128-1.094 1.88-1.199 1.153.046 2.21.707 2.82 1.764a2.367 2.367 0 0 1 1.584-1.045 2.257 2.257 0 0 1 1.799.498c.972.882 1.111 2.434.948 3.783L4 179.832z"/>
        <path fill="#536FF9" d="M345 165.145c-3.167-.73-6.298 1.377-7 4.71 3.167.73 6.298-1.377 7-4.71zM336 169.952c-.198-1.78-1.047-3.402-2.36-4.51-1.313-1.107-2.982-1.608-4.64-1.393.416 3.704 3.549 6.345 7 5.903zM345 157.145c-3.167-.73-6.298 1.377-7 4.712 3.167.726 6.295-1.38 7-4.712zM336.998 151c-1.28 1.193-1.998 2.812-1.998 4.5 0 1.688.719 3.307 1.998 4.5 1.282-1.192 2.002-2.811 2.002-4.5s-.72-3.308-2.002-4.5zM336 161.961c-.421-3.084-3.55-5.284-7-4.922.421 3.084 3.55 5.284 7 4.922z"/>
        <path fill="#07289E" d="M337 155h.39v22H337z"/>
        <path fill="#07289E" d="M336.027 162L332 158.37l.156-.193 3.88 3.505L340.86 158l.14.212zM336.027 171L332 167.37l.156-.193 3.88 3.505L340.86 167l.14.212z"/>
        <path fill="#6577FC" d="M329 179.832c.013-.981.587-1.851 1.442-2.186.855-.335 1.813-.065 2.407.679a9.225 9.225 0 0 1 1.062-2.126c.448-.66 1.128-1.094 1.88-1.199 1.153.046 2.21.707 2.82 1.764a2.367 2.367 0 0 1 1.584-1.045 2.257 2.257 0 0 1 1.799.498c.972.882 1.111 2.434.948 3.783L329 179.832z"/>
        <path fill="#536FF9" d="M129 165.145c-3.167-.73-6.298 1.377-7 4.71 3.167.73 6.298-1.377 7-4.71zM121 169.951c-.2-1.78-1.05-3.402-2.362-4.51-1.313-1.106-2.981-1.607-4.638-1.392.42 3.705 3.551 6.346 7 5.902zM129 157.145c-3.167-.73-6.298 1.377-7 4.712 3.167.726 6.295-1.38 7-4.712zM121.004 151c-1.283 1.192-2.004 2.811-2.004 4.5s.721 3.308 2.004 4.5c2.661-2.486 2.661-6.514 0-9z"/>
        <path fill="#536FF9" d="M121 161.952c-.415-3.704-3.548-6.346-7-5.904.415 3.704 3.548 6.346 7 5.904z"/>
        <path fill="#07289E" d="M120 155h.39v22H120z"/>
        <path fill="#07289E" d="M121.02 162l-4.02-3.63.156-.193 3.88 3.505L125.86 158l.14.212zM121.02 171l-4.02-3.63.156-.193 3.88 3.505L125.86 167l.14.212z"/>
        <path fill="#6577FC" d="M113 179.832c.013-.981.587-1.851 1.442-2.186.855-.335 1.813-.065 2.407.679a9.225 9.225 0 0 1 1.062-2.126c.448-.66 1.128-1.094 1.88-1.199 1.153.046 2.21.707 2.82 1.764a2.367 2.367 0 0 1 1.584-1.045 2.257 2.257 0 0 1 1.799.498c.972.882 1.111 2.434.948 3.783L113 179.832z"/>
        <path fill="#AFC6F5" d="M103 262.2c-2.394-.49-4.898-.07-6.96 1.167-2.064 1.238-3.517 3.192-4.04 5.433 2.394.49 4.898.07 6.96-1.167 2.064-1.238 3.517-3.192 4.04-5.433zM91 269.928c-.654-5.556-5.577-9.519-11-8.856a10.196 10.196 0 0 0 3.71 6.763 9.721 9.721 0 0 0 7.29 2.093zM103 250.2c-2.394-.49-4.898-.07-6.96 1.167-2.064 1.238-3.517 3.192-4.04 5.433 2.394.49 4.898.07 6.96-1.167 2.064-1.238 3.517-3.192 4.04-5.433zM92 239c-1.92 1.856-3 4.374-3 7 0 2.626 1.08 5.144 3 7 1.92-1.856 3-4.374 3-7 0-2.626-1.08-5.144-3-7zM91 257.928a10.196 10.196 0 0 0-3.71-6.763 9.721 9.721 0 0 0-7.29-2.093 10.196 10.196 0 0 0 3.71 6.763 9.721 9.721 0 0 0 7.29 2.093z"/>
        <path fill="#07289E" d="M92 247h.605v35H92z"/>
        <path fill="#07289E" d="M91.253 258L85 252.556l.24-.29 6.037 5.255L98.785 252l.215.308zM91.253 271L85 265.556l.24-.29 6.037 5.255L98.785 265l.215.308zM80 283.769a3.306 3.306 0 0 1 2.168-3.061 3.272 3.272 0 0 1 3.612.957 12.514 12.514 0 0 1 1.584-2.98 4.2 4.2 0 0 1 2.819-1.674c1.694-.143 3.167 1.108 4.228 2.455a3.57 3.57 0 0 1 5.083-.757c1.458 1.219 1.663 3.394 1.418 5.291L80 283.769z"/>
        <path fill="#AFC6F5" d="M233 262.2c-4.986-1.017-9.91 1.937-11 6.6 4.986 1.017 9.91-1.937 11-6.6zM220 269.927c-.658-5.556-5.58-9.518-11-8.855.654 5.559 5.578 9.523 11 8.855zM233 250.2c-4.986-1.017-9.91 1.937-11 6.6 4.986 1.017 9.91-1.937 11-6.6zM221 239c-1.92 1.856-3 4.374-3 7 0 2.626 1.08 5.144 3 7 1.92-1.856 3-4.374 3-7 0-2.626-1.08-5.144-3-7zM220 257.927c-.654-5.558-5.578-9.521-11-8.854.654 5.558 5.578 9.521 11 8.854z"/>
        <path fill="#07289E" d="M220 247h.605v35H220z"/>
        <path fill="#07289E" d="M220.256 258L214 252.556l.231-.29 6.042 5.255 7.52-5.521.207.308zM220.256 271L214 265.556l.231-.29 6.042 5.255 7.52-5.521.207.308zM209 283.769a3.306 3.306 0 0 1 2.167-3.052 3.274 3.274 0 0 1 3.608.948 12.536 12.536 0 0 1 1.584-2.98 4.201 4.201 0 0 1 2.82-1.674c1.695-.143 3.168 1.108 4.23 2.455a3.572 3.572 0 0 1 5.085-.757c1.458 1.219 1.663 3.394 1.418 5.291L209 283.769z"/>
        <path fill="#AFC6F5" d="M284 262.2c-2.394-.49-4.898-.07-6.96 1.167-2.064 1.238-3.517 3.192-4.04 5.433 2.394.49 4.898.07 6.96-1.167 2.064-1.238 3.517-3.192 4.04-5.433zM271 269.927c-.654-5.555-5.577-9.518-11-8.855a10.186 10.186 0 0 0 3.708 6.765 9.714 9.714 0 0 0 7.292 2.09zM284 250.2c-2.394-.49-4.898-.07-6.96 1.167-2.064 1.238-3.517 3.192-4.04 5.433 2.394.49 4.898.07 6.96-1.167 2.064-1.238 3.517-3.192 4.04-5.433zM271 239c-1.92 1.856-3 4.374-3 7 0 2.626 1.08 5.144 3 7 1.92-1.856 3-4.374 3-7 0-2.626-1.08-5.144-3-7zM271 257.927a10.194 10.194 0 0 0-3.71-6.762 9.722 9.722 0 0 0-7.29-2.093 10.186 10.186 0 0 0 3.708 6.765 9.714 9.714 0 0 0 7.292 2.09z"/>
        <path fill="#07289E" d="M271 247h.605v35H271z"/>
        <path fill="#07289E" d="M271.253 258L265 252.556l.231-.29 6.046 5.255 7.508-5.521.215.308zM271.253 271L265 265.556l.231-.29 6.046 5.255 7.508-5.521.215.308zM260 283.753a3.306 3.306 0 0 1 2.169-3.061 3.274 3.274 0 0 1 3.613.957 12.512 12.512 0 0 1 1.585-2.98 4.201 4.201 0 0 1 2.812-1.658c1.695-.143 3.168 1.108 4.23 2.455a3.572 3.572 0 0 1 5.085-.757c1.458 1.219 1.663 3.394 1.418 5.291L260 283.753z"/>
        <path fill="#AFC6F5" d="M330 262.2c-2.394-.49-4.898-.07-6.96 1.167-2.064 1.238-3.517 3.192-4.04 5.433 2.394.49 4.898.07 6.96-1.167 2.064-1.238 3.517-3.192 4.04-5.433zM317 269.927c-.658-5.556-5.58-9.518-11-8.855.654 5.559 5.578 9.523 11 8.855zM330 250.2c-2.394-.49-4.898-.07-6.96 1.167-2.064 1.238-3.517 3.192-4.04 5.433 2.394.49 4.898.07 6.96-1.167 2.064-1.238 3.517-3.192 4.04-5.433zM318 239c-1.92 1.856-3 4.374-3 7 0 2.626 1.08 5.144 3 7 1.92-1.856 3-4.374 3-7 0-2.626-1.08-5.144-3-7zM317 257.927c-.654-5.558-5.578-9.521-11-8.854.654 5.558 5.578 9.521 11 8.854z"/>
        <path fill="#07289E" d="M317 247h.605v35H317z"/>
        <path fill="#07289E" d="M317.256 258L311 252.556l.231-.29 6.042 5.255 7.52-5.521.207.308zM317.256 271L311 265.556l.231-.29 6.042 5.255 7.52-5.521.207.308zM306 283.769a3.306 3.306 0 0 1 2.167-3.052 3.274 3.274 0 0 1 3.608.948 12.536 12.536 0 0 1 1.584-2.98 4.201 4.201 0 0 1 2.82-1.674c1.695-.143 3.168 1.108 4.23 2.455a3.572 3.572 0 0 1 5.085-.757c1.458 1.219 1.663 3.394 1.418 5.291L306 283.769zM200 132h7v70h-7z"/>
        <path fill="#536FF9" d="M252.681 65.43a28.062 28.062 0 0 1-5.967-18.538v-1.565c0-16.194-8.619-31.157-22.61-39.254a45.128 45.128 0 0 0-45.22 0c-13.991 8.097-22.61 23.06-22.61 39.254v1.565a27.837 27.837 0 0 1-5.903 18.465 65.405 65.405 0 0 0-14.369 40.47c-.288 35.637 28.345 65.317 63.898 66.152 25.444.64 48.95-13.563 60.27-36.413 11.319-22.85 8.398-50.205-7.489-70.136z"/>
        <path fill="#ECB329" d="M169 88.5a3.5 3.5 0 1 1-7 0 3.5 3.5 0 0 1 7 0z"/>
        <path fill="#FFF" d="M193 67.5a3.5 3.5 0 1 1-7 0 3.5 3.5 0 0 1 7 0z"/>
        <circle cx="199.5" cy="39.5" r="3.5" fill="#ECB329"/>
        <circle cx="171.5" cy="47.5" r="3.5" fill="#ECB329"/>
        <path fill="#FFF" d="M250 77.5a3.5 3.5 0 1 1-7 0 3.5 3.5 0 0 1 7 0zM226 26.5a3.5 3.5 0 1 1-3.5-3.5 3.492 3.492 0 0 1 3.5 3.5z"/>
        <path fill="#ECB329" d="M177 142.5a3.5 3.5 0 1 1-7 0 3.5 3.5 0 0 1 7 0z"/>
        <circle cx="186.5" cy="119.5" r="3.5" fill="#FFF"/>
        <circle cx="150.5" cy="113.5" r="3.5" fill="#FFF"/>
        <circle cx="229.5" cy="56.5" r="3.5" fill="#ECB329"/>
        <circle cx="196.5" cy="92.5" r="3.5" fill="#AFC6F5"/>
        <path fill="#AFC6F5" d="M229 89.492A3.5 3.5 0 1 1 225.5 86a3.492 3.492 0 0 1 3.5 3.492z"/>
        <circle cx="250.5" cy="112.5" r="3.5" fill="#ECB329"/>
        <path fill="#FFF" d="M193 16.485A3.5 3.5 0 1 1 189.5 13a3.508 3.508 0 0 1 3.5 3.485z"/>
        <path fill="#6577FC" d="M185 203.656c.037-2.157 1.433-4.068 3.508-4.803 2.075-.735 4.4-.141 5.842 1.491a19.39 19.39 0 0 1 2.581-4.686 6.783 6.783 0 0 1 4.563-2.64c2.741-.227 5.155 1.742 6.841 3.858a5.84 5.84 0 0 1 3.855-2.287 5.919 5.919 0 0 1 4.368 1.092c2.398 1.922 2.693 5.35 2.294 8.319L185 203.656z"/>
        <path fill="#AFC6F5" d="M138 45a19.162 19.162 0 0 0-11.809-11.677 19.068 19.068 0 0 0-16.46 1.966c-3.713-9.972-12.99-16.762-23.585-17.26-10.595-.498-20.464 5.392-25.089 14.972a18.8 18.8 0 0 0-5.053-.704C47.934 32.295 40.731 37.377 38 45h100zM63 82a9.921 9.921 0 0 0-14.695-5.032 13.783 13.783 0 0 0-25.312-1.203A9.909 9.909 0 0 0 11 82h52zM314 54a9.941 9.941 0 0 0-9.36-6.596 9.828 9.828 0 0 0-5.335 1.572 13.783 13.783 0 0 0-25.312-1.219A9.909 9.909 0 0 0 262 53.993L314 54z" opacity=".08"/>
        <ellipse cx="34.5" cy="278.5" fill="#293DA3" opacity=".146" rx="32.5" ry="5.5"/>
        <ellipse cx="287.5" cy="220.5" fill="#293DA3" opacity=".146" rx="23.5" ry="3.5"/>
        <path fill="#07289E" d="M243 155h81v10h-81z"/>
        <path fill="#536FF9" d="M243 169h81v7h-81z"/>
        <path fill="#07289E" d="M243 178h81v9h-81zM238 187h91v6h-91z"/>
        <path fill="#07289E" d="M244.479 211.928h-1.744c-.406 0-.735-.36-.735-.802 0-.443.33-.801.735-.801h1.744c1.051-.01 2.024-.611 2.57-1.59.548-.98.59-2.198.114-3.22l-.169-.353c-1.711-3.489-.94-7.807 1.846-10.342l3.95-3.631a.689.689 0 0 1 .724-.141.787.787 0 0 1 .474.613.843.843 0 0 1-.25.754l-3.942 3.672c-2.237 2.054-2.85 5.534-1.47 8.345l.168.353a5.292 5.292 0 0 1-.115 4.84c-.817 1.479-2.287 2.38-3.871 2.375l-.03-.072zM325.236 212h-1.742c-1.585.01-3.057-.892-3.875-2.376a5.305 5.305 0 0 1-.11-4.853l.17-.353c1.378-2.817.765-6.303-1.47-8.361l-3.948-3.639a.846.846 0 0 1-.25-.756.788.788 0 0 1 .475-.614.687.687 0 0 1 .724.141l3.947 3.639c2.776 2.534 3.548 6.846 1.852 10.337l-.169.353a3.577 3.577 0 0 0 .107 3.23c.548.983 1.523 1.585 2.576 1.59h1.742c.406 0 .735.359.735.802 0 .444-.33.804-.735.804l-.03.056zM253 161h2v25h-2zM313 161h2v25h-2z"/>
        <ellipse cx="170.5" cy="283.5" fill="#293DA3" opacity=".146" rx="32.5" ry="5.5"/>
        <ellipse cx="92.5" cy="187.5" fill="#293DA3" opacity=".146" rx="32.5" ry="5.5"/>
        <path fill="#07289E" d="M20.895 280.165c.127.584.452 1.118.93 1.53.52.407 1.296.407 1.816 0 .28-.326.405-.739.344-1.147-.093-1.663-1.163-3.11-1.368-4.731-.121-.956-.233-5.953-2.187-2.769-.968 1.555-.075 5.396.465 7.117zM45.795 273.913c.323-.018.646.04.93.164a.48.48 0 0 1 .264.305.394.394 0 0 1-.099.363c-3.033.3-6.099.335-9.142.107a.935.935 0 0 1-.473-.114.523.523 0 0 1-.181-.29A2.04 2.04 0 0 1 37.18 273c-.291.636 8.095.9 8.615.913z"/>
        <path fill="#EEBCC5" d="M37.221 175L34 180.737 37.905 182 41 175.702z"/>
        <path fill="#07289E" d="M21.53 213.156l2.02 27.117L19 273.785s2.02 1.534 3.409 1.155c1.389-.38 9.739-32.875 9.739-32.875s1.141-20.188 1.516-20.188c.376 0 2.14-.202 2.14-.202l1.908 20.762-.886 31.493s.63.897 2.658 1.026c1.764 0 5.516-31.881 5.516-31.881l-.966-28.368-4.678-3.578-1.9-.129-1.892.388-14.033 1.768z"/>
        <path fill="#1F40E5" d="M69 206.414l-9.488-5.088a10.146 10.146 0 0 1-3.712-3.41L44.8 181l-.8 14.48 8.176 8.682a10.195 10.195 0 0 0 4.504 2.763L67.08 210l1.92-3.586z"/>
        <path fill="#FFF" d="M28 211.134s3.685 2.736 5.972 2.862c2.288.126 8.028-2.988 8.028-2.988l-.73-29.713-3.34-2.36-1.605-.935h-3.589s-5.218 10.963-4.583 14.321c.634 3.359-.153 18.813-.153 18.813z"/>
        <path fill="#1F40E5" d="M40.312 209.96l.696 12.04L46 219.882l-1.745-38.228L39 180zM35 177l-12.816 2.627c-1 .211-1.94.656-2.748 1.302l-9.195 7.333a6.652 6.652 0 0 0-2.165 3.144L3 207.026l3.114 1.09 7.467-14.414a5.564 5.564 0 0 1 2.141-2.255l9.444-5.514-4.134 33.736L29.916 223 35 177z"/>
        <path fill="#EA972A" d="M71.267 210s-1.313 1.004-1.266 4.741c.016 2.094.127 4.184.331 6.259l.592-.624s-.331-5.01 0-6.946c.21-.991.577-1.91 1.076-2.695l-.733-.735z"/>
        <path fill="#EEBCC5" d="M44.17 176.811a7.499 7.499 0 1 1-3.34-14.62 7.499 7.499 0 0 1 3.34 14.62zM2.444 212.95a1.999 1.999 0 1 1 1.505-2.39 1.992 1.992 0 0 1-1.505 2.39zM72.444 210.95a1.999 1.999 0 1 1 1.505-2.39 1.992 1.992 0 0 1-1.505 2.39z"/>
        <path fill="#07289E" d="M38 180l3 .697 1 2.56-1.314 1.019 1.314 2.89L39.176 200zM32.439 177.534L30 179.42l1.927 1.16L30 182.235 32.439 199S36 178.933 36 178.655a9.36 9.36 0 0 0-.772-1.655l-2.789.534z"/>
        <path fill="#FFF" d="M34 177.817L35.12 175l2.904 3.672s2.068-1.027 1.973-.769c-.095.26-.379 4.097-.379 4.097l-1.87-2.156s-3.282 1.365-3.377 1.028c-.095-.338-.371-3.055-.371-3.055z"/>
        <path fill="#F76D59" d="M37.81 180l-2.374 1.331.864 1.428-1.3 21.244L36.51 206l2.054-1.428-.973-21.62 1.409-.955z"/>
        <path fill="#FFF" d="M5 207.701L3.854 209 1 208.257 1.762 207z"/>
        <path fill="url(#a)" d="M23.84 186.249L27 185l-5 15z"/>
        <path fill="url(#b)" d="M48.505 200L54 194.15 45 181l.842 16.321z"/>
        <path fill="#FFF" d="M68.939 206l2.061.818L68.939 210 67 209.396z"/>
        <path fill="#ECB329" d="M77.328 212l-10.044 9.33s-1.91 3.267 4.183 7.65c1.012.405 9.342-5.217 11.925-6.991.472-.323.7-.906.574-1.469-.506-2.279-2.183-7.694-6.638-8.52z"/>
        <path fill="#ECB329" d="M76.123 222.771L76 227.908l8.062-.511-.124 3.603L92 226.18l-5.853-.455s-.911-.9-3.284-.381a22.41 22.41 0 0 1-4.293.51L78.184 222l-2.06.771z"/>
        <path fill="#FFF" d="M90.905 231.212c-2.358 1.683-4.9 2.285-5.677 1.342-.777-.944.498-3.082 2.856-4.766 2.358-1.683 4.9-2.285 5.686-1.342.786.944-.507 3.082-2.865 4.766z"/>
        <path fill="#EA972A" d="M72.305 209.328s2.915-1.574 4.695 2.173L75.633 213s.593-2.668-3.268-2.788c-.24.008-.653-.584-.06-.884zM79.046 217.42c.656 1.371 1.43 2.827 2.93 3.484a.945.945 0 0 0 .5.092c.376-.07.516-.494.524-.84a6.86 6.86 0 0 0-1.141-3.393c-.5-.897-1.563-3.032-3.017-2.735-1.813.368-.195 2.558.204 3.392z"/>
        <path fill="#4A83EC" d="M85.664 231.449l.791-.11.76 5.469-.792.11zM87.14 229.694l.748-.282.57 1.525-.749.282zM90.512 228.62l.735-.317 1.709 4.006-.735.317zM88.725 232.834l.771-.21 1.077 4.007-.772.21zM92.338 235.949l.768-.22.632 2.222-.768.22zM91.873 227.594l.683-.416 2.34 3.878-.682.416zM87.728 238.125l.758-.254.823 2.483-.758.254z"/>
        <path fill="#07289E" d="M44.89 162.463c-2.487-.96-5.252-.404-7.265 1.463-2.012 1.867-2.969 4.764-2.513 7.61a6.745 6.745 0 0 0 4.106.26c3.855-.965 6.347-5.065 5.672-9.333z"/>
        <path fill="#EEBCC5" d="M42 170.5a2.5 2.5 0 1 1-5 0 2.5 2.5 0 0 1 5 0z"/>
        <path fill="#07289E" d="M214.059 212.892c2.356.126 4.72.142 7.08.048.735-.03 1.61-.154 1.861-.675a7.009 7.009 0 0 0-2.91-.563c-2.347-.07-4.78-.059-7.15-.106-.446 0-1.189-.651-1.423-.592-.728.13-.65 1.338 0 1.628a9.798 9.798 0 0 0 2.542.26z"/>
        <path fill="#C48A08" d="M226.616 156L228 187.355 213.768 212 211 210.81l8.496-30.197-6.324-23.814z"/>
        <path fill="#ECB329" d="M212 157l.957 16.029 2.658 43.576c1.313.29 2.654.422 3.997.39 1.141-.199 3.063-29.914 3.063-29.914L224 157.988 212 157z"/>
        <ellipse cx="221.712" cy="121.33" fill="#EEBCC5" rx="7.047" ry="7.016" transform="rotate(-80.81 221.712 121.33)"/>
        <path fill="#EEBCC5" d="M227 97a3 3 0 1 1-2.992-3A2.992 2.992 0 0 1 227 97zM235 134a3 3 0 1 1-6 0 3 3 0 0 1 6 0z"/>
        <path fill="#D98E9D" d="M232 127.992a3 3 0 1 1-6 .016 3 3 0 0 1 6-.016zM217.84 94.037a3 3 0 1 1-5.68 1.927 3 3 0 0 1 5.68-1.927z"/>
        <path fill="#FFF" d="M213.748 131a43.21 43.21 0 0 0-1.575 7.693c-.197 3.18-1.173 19.94-1.173 19.94a8.868 8.868 0 0 0 8.213 4.348 13.334 13.334 0 0 0 8.787-4.149l-.59-24.677s.787-1.97-.583-2.384c-1.37-.413-13.079-.771-13.079-.771z"/>
        <path fill="#2C2A42" d="M218.893 121.873a1.949 1.949 0 0 0 .274 2.074c.49.534 1.19.816 1.906.77a2.389 2.389 0 0 0 1.794-1.01c.039 1.38.086 2.768.133 4.156a5.966 5.966 0 0 1-3.08-.144 8.215 8.215 0 0 1-2.289-.75 6.964 6.964 0 0 1-2.68-3.38 10.28 10.28 0 0 1-.941-3.327c-.235-3.014 3.817-7.32 6.646-8.262.902 2.153.22 6.763-.133 9.116a1.604 1.604 0 0 0-1.63.757z"/>
        <path fill="#F76D59" d="M225.411 135c-.618 0-17.411-1.761-17.411-1.761l2.053-3.523 8.392-3.716 9.555 1.312-2.589 7.688z"/>
        <path fill="#07289E" d="M230.95 140.16l3.152.324c.29-.001.568.092.778.262.22.286.129.67-.206.86-.318.18-.688.282-1.07.293a21.455 21.455 0 0 1-5.177-.124.625.625 0 0 1-.36-.131c-.16-.162 0-.412.125-.587.235-.33.54-.62.902-.854.373-.235.871-.269 1.284-.087"/>
        <path fill="#FFF" d="M207 110.42s.222 5.642.095 9.458c-.158 4.872 1.87 12.122 1.87 12.122L219 125.342l-2.756-11.293 2.558-3.029-4.523-3.02-7.279 2.42z"/>
        <path fill="#EEBCC5" d="M232 139.802L228.368 127 223 133.78l5.368 8.22z"/>
        <path fill="#ECB329" d="M216.035 136.305v14.958c.008.453.181.885.486 1.209.314.337.746.528 1.198.528.452 0 .884-.19 1.198-.528L233 136.779l-2.7-2.82s-8.418 9.422-8.418 8.83c0-.592.387-7.819.387-7.819s-.38-3.332-3.58-2.937c-3.2.394-2.654 4.272-2.654 4.272z"/>
        <path fill="#EEBCC5" d="M214 109.05L221.951 97l2.049.756L217.094 112z"/>
        <path fill="#D98E9D" d="M216 96l-3.304 16s-3.823-.129-3.693-.635c.13-.506 3.815-15.116 3.815-15.116L216 96z"/>
        <circle cx="209" cy="107" r="7" fill="#EEBCC5"/>
        <path fill="url(#c)" d="M216.19 115l-3.19 2.26 4 2.74z"/>
        <path fill="#2C2A42" d="M202 106.499c0 1.99.75 3.897 2.083 5.304 1.334 1.407 3.143 2.197 5.03 2.197a6.665 6.665 0 0 0 2.34-.47c.543-1.307.81-2.7.187-3.904-.147.764-.71 1.362-1.434 1.52a2.56 2.56 0 0 1-2.05-.504c-.812-.55-1.238-1.557-1.085-2.563.127-.484.459-.878.9-1.069.44-.19.94-.155 1.352.096-.292-.855-.575-1.71-.859-2.563 1.248.085-6.464-2.18-6.464 1.956z"/>
        <path fill="#2C2A42" d="M204.603 96.001c-1.563-.037-2.972.901-3.495 2.325.256-.105.545-.105.801 0-.354.61-.767 1.186-1.234 1.72a4.266 4.266 0 0 0-.256 4.145c1.546 3.301 6.1 3.983 7.646.473 1.475-3.239 1.78-8.663-3.462-8.663z"/>
        <path fill="#F76D59" d="M219 112.58l-4.608-2.58-5.279 4.017s-1.154 2.657 3.907 2.983l3.373-1.832 2.607-2.587z"/>
        <path fill="#07289E" d="M217.75 217.633c.462.388.998.68 1.574.856l4.236 1.587a9.586 9.586 0 0 0 4.393.92c.252-.793-.566-1.476-1.283-1.872-1.756-.968-3.606-1.76-5.448-2.562-.985-.396-6.118-1.46-3.473 1.07zM81 141.135l8.367 21.767 3.3 20.292c.83.496 1.776.773 2.748.806 1.171-.129.222-25.919.222-26.427C95.637 157.065 91 135 91 135s-5.297 4.152-5.693 4.152A44.713 44.713 0 0 0 81 141.135z"/>
        <path fill="#4660FB" d="M91 136.382l-6.676 7.053-8.441 19.142L66.647 186 64 185.373l7.217-30.095L75.501 135z"/>
        <ellipse cx="92.114" cy="100.789" fill="#EEBCC5" rx="6.076" ry="6.065" transform="rotate(-55.98 92.114 100.79)"/>
        <path fill="#EEBCC5" d="M87.828 104L85 108.824 88.252 110 91 104.699z"/>
        <path fill="#D0DDFE" d="M91.41 111l8.048 14.54 5.542 4.038-1.481 2.422-8.68-3.849s-8.97-11.06-8.838-11.437c.134-.376 5.41-5.714 5.41-5.714z"/>
        <path fill="#FFF" d="M85.763 105l-.991 2.267-4.363 2.058a3.333 3.333 0 0 0-1.85 2.509L75 134.6 79.581 136H90.22l.78-1.142v-23.74l-.905-1.44.374-2.41L85.763 105z"/>
        <path fill="url(#d)" d="M91 124.641c-.41-.08-.707-.16-.732-.24C90.172 124.123 81 113 81 113l2.765 19s5.402-1.454 7.235-2.101v-5.258z"/>
        <path fill="#D98E9D" d="M108.396 135.96a2 2 0 1 1 1.566-2.352 2.009 2.009 0 0 1-1.566 2.352z"/>
        <path fill="#D98E9D" d="M103.473 130l4.527 3.303-.687 1.697-5.313-2.403z"/>
        <path fill="url(#e)" d="M91 107l-2.656 3.312S86 108.03 86 108.083c0 .054 2.25 3.917 2.25 3.917l2.75-5z"/>
        <path fill="#D0DDFE" d="M90.253 108l.747 2-1-.407z"/>
        <path fill="#F76D59" d="M90.32 107L89 108.827l.587 2.173L91 109.412z"/>
        <path fill="#F76D59" d="M90.05 110.5l-.467 2.203s-.604 15.442-.582 15.553c.021.111.79 1.744.79 1.744L91 128.026l-.396-15.759-.158-2.267-.395.5z"/>
        <path fill="#FFF" d="M80 114.707L90.312 128 101 123.484l-.69-2.923-8.447 1.916-5.9-10.7s-5.219-3.047-5.963 2.93z"/>
        <path fill="#EEBCC5" d="M107 120.715L101.683 123l-.683-3.473 5.076-1.527z"/>
        <ellipse cx="109" cy="186" fill="#07289E" rx="7" ry="1"/>
        <path fill="#536FF9" d="M117 109.154a7.843 7.843 0 0 0-5.725 1.048c-1.688 1.067-2.866 2.738-3.275 4.644 4.116.822 8.145-1.726 9-5.692zM107 114.944c-.265-1.792-1.363-3.42-3.052-4.525-1.69-1.105-3.83-1.595-5.948-1.362.267 1.79 1.366 3.418 3.055 4.523 1.688 1.104 3.828 1.595 5.945 1.364zM117 100.154c-4.114-.822-8.142 1.725-9 5.692a7.84 7.84 0 0 0 5.723-1.047c1.688-1.068 2.867-2.739 3.277-4.645zM105.962 92A7.198 7.198 0 0 0 104 97.017a7.19 7.19 0 0 0 2.044 4.983c2.64-2.787 2.603-7.26-.082-10zM107 105.943c-.267-1.792-1.366-3.42-3.055-4.525-1.689-1.105-3.828-1.594-5.945-1.361.267 1.792 1.366 3.42 3.055 4.525 1.689 1.105 3.828 1.594 5.945 1.361z"/>
        <path fill="#07289E" d="M107.888 144h-.444L107 97h.457z"/>
        <path fill="#07289E" d="M106.512 106L102 102.462l.172-.194 4.348 3.412 5.324-3.68.156.209zM106.508 115L102 111.454l.164-.193 4.352 3.419 5.336-3.68.148.201zM103 142.017l9-.017-1.074 9.958-6.532.042z"/>
        <path fill="#EEBCC5" d="M106.388 121.962a2 2 0 1 1-.777-3.924 2 2 0 0 1 .777 3.924z"/>
        <path fill="#07289E" d="M66 188.447c1.233.855 2.582 1.729 3.995 1.522.058-.582-.44-.996-.872-1.277l-2.51-1.598c-.361-.234-2.569-1.625-2.612-.873-.043.751 1.5 1.86 1.998 2.226zM98.258 183.01a7.514 7.514 0 0 1 2.378.297c.194.069.388.183.362.321-.027.137-.344.235-.6.258a37.862 37.862 0 0 1-4.404.086l-3.524-.063a.675.675 0 0 1-.247-.04c-.24-.215-.29-.495-.132-.74.264-.206 1.463-.102 1.859-.108 1.41-.012 2.854-.012 4.308-.012zM95.651 98.542a3.21 3.21 0 0 0 .3-2.015 5.938 5.938 0 0 0-8.183.22A6.067 6.067 0 0 0 87.48 105a4.488 4.488 0 0 0 1.224-1.911.426.426 0 0 0 0-.2c0-.167-.19-.278-.324-.382a1.489 1.489 0 0 1-.489-1.542 1.464 1.464 0 1 1 2.66-.393c.056.131.15.242.269.319a.58.58 0 0 0 .308 0 12.01 12.01 0 0 0 2.534-.669 3.956 3.956 0 0 0 1.989-1.68z"/>
        <path fill="#D98E9D" d="M148.104 218L145 222.758l1.435 1.242 5.565-5.836z"/>
        <path fill="#D0DDFE" d="M163.212 191L148 217.875l3.017 3.125L169 199.506l-.508-4.253-2.382-3.622z"/>
        <path fill="#D98E9D" d="M147 223.473a2.5 2.5 0 1 1-5 .054 2.5 2.5 0 0 1 5-.054z"/>
        <path fill="#07289E" d="M163.245 277.31c-.78-.082-1.66-.144-2.175.366a.148.148 0 0 0-.07.117c0 .07.07.118.14.152a4.18 4.18 0 0 0 1.45.359c2.29.347 4.601.577 6.921.69.19.018.382-.003.561-.062a1.04 1.04 0 0 0 .445-.387c.298-.426.464-.913.483-1.414a17.578 17.578 0 0 0-2.05-.131c-.538.048-1.052.29-1.559.373a16.113 16.113 0 0 1-4.146-.063z"/>
        <path fill="#07289E" d="M166.598 221.196L166 255.451l2.648 22.156c.81.296 1.665.427 2.52.386 1.195-.129 2.035-30.814 2.035-30.814L178 217l-11.402 4.196zM182.845 285.715c-.46.164-1.03.581-.787.999.142.245.486.286.77.286 2.654 0 5.207-.884 7.693-1.784.637-.238 1.373-.581 1.465-1.244.402-2.832-8.162 1.391-9.141 1.743z"/>
        <circle cx="160.5" cy="173.5" r="4.5" fill="#07289E"/>
        <path fill="#EEBCC5" d="M160 188.138l4.168 3.862 1.832-3.138-4.655-3.862zM153.062 207.014l-6.78-6.014-1.282 2.907 8.077 7.093 3.923-1.14z"/>
        <path fill="#4660FB" d="M168 221.277l9.974 34.438 10.362 27.146s2.818.381 3.586-.119c.767-.5-4.353-29.915-4.353-29.915L181.915 216l-3.577 1.135"/>
        <path fill="#FFF" d="M165.505 188l-1.585 4.424 1.006 3.787-6.02 15.784-6.53-4.783-2.376 3.787 10.545 9.725 5.142-6.313.88 6.433s4.515 1.642 6.528 1.012c2.012-.63 8.905-6.313 8.905-6.313s-5.768-18.184-9.412-21.341c-3.645-3.157-7.083-6.202-7.083-6.202z"/>
        <path fill="#07289E" d="M161 283c0 .552-3.576 1-8 1-4.424 0-8-.448-8-1s3.584-1 8-1 8 .448 8 1z"/>
        <path fill="#AFC6F5" d="M153 188.03c-5.119-.421-9.595 3.58-10 8.94 5.119.421 9.595-3.58 10-8.94zM140.054 179a9.96 9.96 0 0 0 1.895 14c3.354-4.388 2.506-10.655-1.895-14zM142 196.707c-1.378-4.794-6.747-7.663-12-6.415.658 2.304 2.293 4.275 4.544 5.478 2.25 1.204 4.933 1.54 7.456.937z"/>
        <path fill="#07289E" d="M148 237.952l-.33.048-6.67-55.952.324-.048z"/>
        <path fill="#07289E" d="M142.992 198L136 194.132l.2-.279 6.75 3.737 6.791-5.59.259.242z"/>
        <circle cx="158" cy="184" r="7" fill="#EEBCC5"/>
        <circle cx="143.5" cy="202.5" r="2.5" fill="#EEBCC5"/>
        <path fill="#07289E" d="M141 235.533L152.816 234l.184 12.854-8.57 1.146zM157.978 177.032c-3.854 0-6.978 2.971-6.978 6.637.003.495.061.989.175 1.472 2.328.269 4.99-.728 5.564-2.99a3.603 3.603 0 0 0 1.796 1.582 1.206 1.206 0 0 1-.151-1.08c.124-.363.415-.653.791-.787.804-.205 1.653.117 2.088.79.4.679.519 1.475.332 2.232-.049.21-.049.43 0 .64.105.251.3.459.55.586a7.163 7.163 0 0 0 1.887.886 6.352 6.352 0 0 0 .046-6.665c-1.245-2.069-3.562-3.342-6.067-3.335l-.033.032z"/>
        <path fill="url(#f)" d="M166 214.094L171.131 202l.869 9.477-5.502 6.523z"/>
        <path fill="#FFF" d="M279.947 153.074c-2.165-.365-4.33.644-5.415 2.524-2.934 5.106-8.373 14.986-8.521 18.214-.19 4.418 2.153 15.188 2.153 15.188l2.596-.583 2.868-20.18L285 153.931l-5.053-.857z"/>
        <path fill="#FFF" d="M301.912 159.393s-3.48 8.843-3.48 8.272c0-.426-2.737-8.642-5.224-11.255a3.465 3.465 0 0 0-2.206-.964l-7.64-1.35c-3.091-.551-6.1 1.336-7.039 4.413-.626 2.034-1.212 3.963-1.298 4.381-.18.957 1.486 8.04 1.486 8.04s-1.854 6.688-3.129 8.786c-1.274 2.098.923 6.689 2.41 9.165 1.485 2.476 19.324 2.677 20.997 1.15 1.674-1.528 1.119-4.02-.367-9.165a25.361 25.361 0 0 0-3.535-7.83l.782-3.763c1.025 2.3 2.346 5.161 3.48 7.485a1.9 1.9 0 0 0 1.845 1.095 1.918 1.918 0 0 0 1.682-1.345L304 161.861l-2.088-2.468z"/>
        <path fill="#89564D" d="M286.993 186.17L284 213.434l2.447.567 7.419-26.47a3.593 3.593 0 0 0-.383-2.83 3.532 3.532 0 0 0-2.317-1.638 3.514 3.514 0 0 0-2.758.636 3.58 3.58 0 0 0-1.415 2.473z"/>
        <path fill="#9B6E62" d="M279.278 187.364l11.085 28.245L293 216l-6.509-30.931c-.373-1.792-1.915-3.071-3.697-3.069a3.766 3.766 0 0 0-3.147 1.72 3.992 3.992 0 0 0-.369 3.644z"/>
        <ellipse cx="286.204" cy="145.626" fill="#2C2A42" rx="7.223" ry="7.192" transform="rotate(-76.67 286.204 145.626)"/>
        <path fill="#ECB329" d="M304 155a3 3 0 1 1-6 0 3 3 0 0 1 6 0z"/>
        <circle cx="302.5" cy="158.5" r="2.5" fill="#9B6E62"/>
        <circle cx="271.5" cy="190.5" r="2.5" fill="#9B6E62"/>
        <path fill="#89564D" d="M280.242 219.512c-.191.308-.367.742-.122 1.018a.756.756 0 0 0 .382.205c.59.274 1.25.338 1.879.181.28-.11.538-.27.764-.473a9.55 9.55 0 0 0 2.742-3.944.876.876 0 0 0 0-.86 5.936 5.936 0 0 0-1.207-.639c-1.306 0-3.315 2.682-4.438 4.512z"/>
        <path fill="#07289E" d="M285.188 216.444a9.549 9.549 0 0 1-2.33 1.604c-.53.21-1.245.234-1.55-.226a.963.963 0 0 1-.105-.615c-.346.46-.667.911-.932 1.324-.265.413-.386.732-.129 1.005.111.103.25.174.402.202a3.16 3.16 0 0 0 1.977.18 2.57 2.57 0 0 0 .803-.476A9.38 9.38 0 0 0 286 216a2.318 2.318 0 0 0-.812.444z"/>
        <path fill="#9B6E62" d="M295.76 219.667c.19.275.364.664.121.912a.886.886 0 0 1-.378.183 3.083 3.083 0 0 1-1.863.163 2.475 2.475 0 0 1-.757-.431 8.527 8.527 0 0 1-2.711-3.535 4.307 4.307 0 0 1-.106-1.952c.083-.085 1.188.608 1.317.608 1.265.029 3.256 2.418 4.377 4.052z"/>
        <path fill="#07289E" d="M290.804 217.444a9.558 9.558 0 0 0 2.333 1.604c.53.21 1.246.234 1.552-.226a.962.962 0 0 0 .105-.615c.345.46.66.911.933 1.324.273.413.386.732.128 1.005a.928.928 0 0 1-.402.202c-.62.27-1.317.334-1.978.18a2.606 2.606 0 0 1-.805-.476A9.426 9.426 0 0 1 290 217c.296.094.57.245.804.444z"/>
        <path fill="url(#g)" d="M292.84 156.543A3.108 3.108 0 0 0 292 156c.521 1.85 1.294 4.66 1.639 5.975.37 1.437 0 4.913-.311 6.877.496.978 1.059 2.055 1.63 3.148 1.738-1.67 2.81-3.823 3.042-6.113-.908-2.384-3.1-7.457-5.16-9.344z"/>
        <path fill="url(#h)" d="M275.065 168.964c-.185-1.03-.504-2.051-.664-3.09-.26-2.462.14-4.949 1.16-7.21A21.026 21.026 0 0 0 277 155a5.251 5.251 0 0 0-1.564 1.661 149.13 149.13 0 0 0-7.436 14.43l.505.548c1.202 1.313 2.8 2.742 4.525 2.268.35-.101.675-.277.95-.515l.53-3.755.555-.673z"/>
        <circle cx="283" cy="140" r="5" fill="#2C2A42"/>
        <circle cx="287" cy="147" r="7" fill="#9B6E62"/>
        <path fill="#2C2A42" d="M282.46 148.224a6.763 6.763 0 0 1 6.764-6.763 6.69 6.69 0 0 1 3.776 1.16 7.246 7.246 0 1 0-9.38 9.379 6.69 6.69 0 0 1-1.16-3.776z"/>
        <circle cx="282.5" cy="144.5" r="2.5" fill="#9B6E62"/>
    </g>
</svg>
