<svg xmlns="http://www.w3.org/2000/svg" xmlns:xlink="http://www.w3.org/1999/xlink" width="224" height="33" viewBox="0 0 224 33">
    <defs>
        <path id="a" d="M0 .18h36.727v23.61H0z"/>
        <path id="c" d="M0 .655h36.727v23.61H0z"/>
        <path id="e" d="M0 0h36.727v23.61H0z"/>
        <path id="g" d="M0 32.815h223.336V0H0z"/>
    </defs>
    <g fill="none" fill-rule="evenodd">
        <g transform="translate(0 9.024)">
            <mask id="b" fill="#fff">
                <use xlink:href="#a"/>
            </mask>
            <path fill="#0344FF" d="M35.824 16.348L20.544 1.083a3.085 3.085 0 0 0-4.36 0L.903 16.348a3.078 3.078 0 0 0 0 4.356l2.187 2.185a3.086 3.086 0 0 0 4.36 0l8.734-8.725a3.083 3.083 0 0 1 4.36 0l8.733 8.725a3.086 3.086 0 0 0 4.36 0l2.187-2.185a3.078 3.078 0 0 0 0-4.356" mask="url(#b)"/>
        </g>
        <g transform="translate(0 4.102)">
            <mask id="d" fill="#fff">
                <use xlink:href="#c"/>
            </mask>
            <path fill="#3B8DFF" d="M35.824 16.823L20.544 1.557a3.085 3.085 0 0 0-4.36 0L.903 16.823a3.078 3.078 0 0 0 0 4.355l2.187 2.185a3.086 3.086 0 0 0 4.36 0l8.734-8.725a3.083 3.083 0 0 1 4.36 0l8.733 8.725a3.086 3.086 0 0 0 4.36 0l2.187-2.185a3.078 3.078 0 0 0 0-4.355" mask="url(#d)"/>
        </g>
        <mask id="f" fill="#fff">
            <use xlink:href="#e"/>
        </mask>
        <path fill="#6FD3FF" d="M35.824 16.168L20.544.902a3.085 3.085 0 0 0-4.36 0L.903 16.168a3.079 3.079 0 0 0 0 4.356L3.09 22.71a3.086 3.086 0 0 0 4.36 0l8.734-8.726a3.085 3.085 0 0 1 4.36 0l8.733 8.726a3.086 3.086 0 0 0 4.36 0l2.187-2.185a3.079 3.079 0 0 0 0-4.356" mask="url(#f)"/>
        <path fill="#677897" d="M51.474 12.738h3.309l3.377 6.812 3.358-6.812h3.31v11.646h-2.694l-.016-7.376-2.978 6.213h-1.962l-2.994-6.213v7.376h-2.71zM72.728 19.101c0-.52-.153-.94-.457-1.254-.306-.316-.707-.474-1.206-.474-.466 0-.856.155-1.173.465-.316.31-.523.731-.624 1.263h3.46zm1.696-2.51c.787.865 1.18 2.05 1.18 3.557 0 .233-.004.41-.016.531h-6.253c.144.51.393.9.749 1.172.354.272.786.407 1.296.407.389 0 .763-.077 1.124-.233.36-.154.69-.382.99-.681l1.546 1.545a4.543 4.543 0 0 1-1.689 1.188c-.66.271-1.405.407-2.237.407-.964 0-1.807-.188-2.527-.565a3.926 3.926 0 0 1-1.656-1.595c-.381-.686-.573-1.484-.573-2.392 0-.92.194-1.73.582-2.434a4.009 4.009 0 0 1 1.647-1.628c.71-.383 1.53-.574 2.46-.574 1.464 0 2.59.432 3.377 1.296zM79.704 11.7c.294.292.441.672.441 1.137 0 .454-.147.83-.44 1.13-.295.3-.668.448-1.123.448-.455 0-.829-.149-1.123-.447-.294-.3-.44-.677-.44-1.131 0-.465.146-.845.44-1.138.294-.294.668-.44 1.123-.44.455 0 .828.146 1.122.44m-3.45 13.682c.287 0 .509-.094.665-.282.155-.188.232-.465.232-.83v-8.873h2.961v9.321c0 .93-.286 1.664-.857 2.202-.57.536-1.344.805-2.32.805a5.718 5.718 0 0 1-1.995-.349l.582-2.11c.288.078.532.116.732.116M85.084 18.303c-.355.41-.532.948-.532 1.612 0 .676.177 1.218.532 1.629.355.409.82.614 1.398.614.587 0 1.058-.205 1.413-.614.355-.41.532-.953.532-1.629 0-.664-.18-1.202-.54-1.612-.36-.41-.83-.614-1.405-.614-.577 0-1.043.205-1.398.614m3.975-2.434c.743.382 1.32.92 1.73 1.612.41.692.615 1.492.615 2.401 0 .92-.205 1.725-.615 2.417a4.197 4.197 0 0 1-1.73 1.612c-.743.382-1.602.573-2.577.573-.977 0-1.835-.19-2.579-.573a4.141 4.141 0 0 1-1.72-1.612c-.406-.692-.608-1.498-.608-2.417 0-.909.202-1.709.607-2.401a4.141 4.141 0 0 1 1.721-1.612c.744-.382 1.602-.573 2.579-.573.975 0 1.834.19 2.577.573M97.084 15.695c.493-.277 1.056-.416 1.688-.416v2.709c-.1-.011-.25-.017-.45-.017-.698 0-1.263.164-1.696.49-.432.327-.681.773-.748 1.338v4.586h-2.96v-8.989h2.96v1.496c.31-.521.712-.92 1.206-1.197M105.707 19.101c0-.52-.153-.94-.458-1.254-.305-.316-.707-.474-1.205-.474-.467 0-.857.155-1.173.465-.316.31-.524.731-.624 1.263h3.46zm1.695-2.51c.788.865 1.181 2.05 1.181 3.557 0 .233-.005.41-.016.531h-6.253c.143.51.393.9.748 1.172.354.272.787.407 1.297.407.388 0 .763-.077 1.123-.233.36-.154.69-.382.99-.681l1.546 1.545a4.543 4.543 0 0 1-1.688 1.188c-.66.271-1.405.407-2.237.407-.964 0-1.807-.188-2.528-.565a3.926 3.926 0 0 1-1.655-1.595c-.382-.686-.573-1.484-.573-2.392 0-.92.194-1.73.582-2.434a4.009 4.009 0 0 1 1.646-1.628c.71-.383 1.53-.574 2.461-.574 1.464 0 2.59.432 3.376 1.296zM113.24 17.323c-.255 0-.46.048-.615.141a.465.465 0 0 0-.233.424c0 .2.123.36.366.481.244.123.632.256 1.165.4.642.188 1.177.374 1.604.556.427.183.795.46 1.107.831.31.37.465.856.465 1.455 0 .907-.352 1.619-1.056 2.134-.704.515-1.622.773-2.752.773a7.373 7.373 0 0 1-2.196-.325 5.794 5.794 0 0 1-1.863-.955l.932-1.91c.51.354 1.044.628 1.605.822a4.86 4.86 0 0 0 1.588.29c.288 0 .518-.046.69-.141.171-.094.258-.23.258-.407 0-.22-.125-.392-.375-.515-.249-.122-.64-.255-1.172-.399a12.875 12.875 0 0 1-1.563-.556 2.935 2.935 0 0 1-1.072-.823c-.306-.365-.458-.84-.458-1.428 0-.908.343-1.62 1.03-2.135.688-.515 1.575-.774 2.662-.774a7.234 7.234 0 0 1 3.742 1.048l-.998 1.927c-1.164-.61-2.118-.914-2.86-.914M126.428 17.738c-.532 0-.964.203-1.297.607-.333.404-.5.927-.5 1.57 0 .654.167 1.18.5 1.578a1.61 1.61 0 0 0 1.297.6c.82 0 1.408-.339 1.763-1.015l2.178 1.246a3.685 3.685 0 0 1-1.596 1.595c-.71.377-1.54.565-2.495.565-.92 0-1.73-.188-2.427-.565a3.973 3.973 0 0 1-1.622-1.595c-.383-.686-.574-1.484-.574-2.392 0-.92.194-1.731.582-2.434a4.033 4.033 0 0 1 1.638-1.629c.705-.382 1.516-.573 2.437-.573.898 0 1.696.185 2.394.556a4.011 4.011 0 0 1 1.63 1.57l-2.145 1.247c-.422-.62-1.009-.93-1.763-.93M134.262 18.303c-.356.41-.532.948-.532 1.612 0 .676.176 1.218.532 1.629.355.409.82.614 1.397.614.587 0 1.058-.205 1.414-.614.354-.41.531-.953.531-1.629 0-.664-.18-1.202-.54-1.612-.36-.41-.829-.614-1.405-.614-.577 0-1.042.205-1.397.614m3.974-2.434c.743.382 1.32.92 1.73 1.612.41.692.616 1.492.616 2.401 0 .92-.206 1.725-.616 2.417a4.187 4.187 0 0 1-1.73 1.612c-.742.382-1.602.573-2.577.573-.976 0-1.835-.19-2.578-.573a4.143 4.143 0 0 1-1.722-1.612c-.404-.692-.606-1.498-.606-2.417 0-.909.202-1.709.606-2.401a4.143 4.143 0 0 1 1.722-1.612c.743-.382 1.602-.573 2.578-.573.975 0 1.835.19 2.577.573M150.401 16.21c.594.62.89 1.457.89 2.51v5.665h-2.944v-4.818c0-.51-.138-.912-.415-1.205-.278-.293-.649-.441-1.114-.441-.488.012-.89.172-1.206.482-.316.31-.502.72-.557 1.23v4.752h-2.96v-8.99h2.96v1.463c.321-.521.735-.914 1.239-1.18.504-.266 1.083-.399 1.737-.399.987 0 1.777.31 2.37.93M158.892 21.552c.354-.416.531-.956.531-1.62 0-.676-.177-1.219-.531-1.629-.356-.41-.821-.614-1.397-.614-.577 0-1.046.207-1.406.623-.36.415-.54.955-.54 1.62 0 .664.18 1.204.54 1.62.36.415.829.623 1.406.623.576 0 1.041-.208 1.397-.623zm3.492-9.495v12.328h-2.961V23.22c-.31.422-.689.74-1.138.956-.45.216-.957.324-1.523.324-.83 0-1.562-.194-2.195-.582a3.917 3.917 0 0 1-1.472-1.636c-.348-.703-.523-1.515-.523-2.434 0-.908.172-1.706.516-2.393a3.811 3.811 0 0 1 1.446-1.595c.62-.377 1.342-.565 2.162-.565.576 0 1.095.111 1.555.332.46.222.851.538 1.172.948v-4.52h2.961z"/>
        <mask id="h" fill="#fff">
            <use xlink:href="#g"/>
        </mask>
        <path fill="#677897" d="M164.73 24.385h2.943v-8.989h-2.944v8.989zm2.569-12.686c.293.293.44.673.44 1.137 0 .455-.147.832-.44 1.131-.294.3-.669.448-1.123.448-.455 0-.829-.149-1.123-.448-.293-.3-.44-.676-.44-1.13 0-.465.147-.845.44-1.138.294-.294.668-.44 1.123-.44.454 0 .829.146 1.123.44zM173.976 17.738c-.532 0-.965.203-1.298.607-.332.404-.499.927-.499 1.57 0 .654.167 1.18.5 1.578a1.61 1.61 0 0 0 1.297.6c.82 0 1.408-.339 1.762-1.015l2.18 1.246a3.696 3.696 0 0 1-1.598 1.595c-.71.377-1.54.565-2.495.565-.92 0-1.729-.188-2.428-.565a3.976 3.976 0 0 1-1.62-1.595c-.383-.686-.574-1.484-.574-2.392 0-.92.193-1.731.581-2.434a4.028 4.028 0 0 1 1.639-1.629c.703-.382 1.516-.573 2.436-.573.898 0 1.697.185 2.395.556a4.023 4.023 0 0 1 1.63 1.57l-2.146 1.247c-.42-.62-1.008-.93-1.762-.93M179.28 24.385h2.945v-8.989h-2.944v8.989zm2.57-12.686c.295.293.441.673.441 1.137 0 .455-.146.832-.44 1.131-.294.3-.668.448-1.122.448-.456 0-.83-.149-1.123-.448-.295-.3-.44-.676-.44-1.13 0-.465.145-.845.44-1.138.293-.294.667-.44 1.123-.44.454 0 .828.146 1.121.44zM187.264 18.303c-.355.41-.532.948-.532 1.612 0 .676.177 1.218.532 1.629.355.409.82.614 1.397.614.587 0 1.058-.205 1.414-.614.354-.41.531-.953.531-1.629 0-.664-.18-1.202-.54-1.612-.36-.41-.829-.614-1.405-.614-.576 0-1.042.205-1.397.614m3.975-2.434c.743.382 1.32.92 1.729 1.612.41.692.616 1.492.616 2.401 0 .92-.205 1.725-.616 2.417a4.187 4.187 0 0 1-1.73 1.612c-.742.382-1.601.573-2.577.573s-1.835-.19-2.578-.573a4.131 4.131 0 0 1-1.72-1.612c-.406-.692-.608-1.498-.608-2.417 0-.909.202-1.709.607-2.401a4.131 4.131 0 0 1 1.721-1.612c.743-.382 1.602-.573 2.578-.573.976 0 1.835.19 2.578.573M203.404 16.21c.593.62.89 1.457.89 2.51v5.665h-2.944v-4.818c0-.51-.139-.912-.416-1.205-.277-.293-.648-.441-1.114-.441-.488.012-.89.172-1.205.482-.317.31-.502.72-.558 1.23v4.752h-2.96v-8.99h2.96v1.463c.322-.521.735-.914 1.24-1.18.503-.266 1.082-.399 1.737-.399.987 0 1.777.31 2.37.93M211.944 19.101c0-.52-.153-.94-.458-1.254-.305-.316-.707-.474-1.205-.474-.466 0-.857.155-1.173.465-.316.31-.524.731-.624 1.263h3.46zm1.695-2.51c.788.865 1.182 2.05 1.182 3.557 0 .233-.006.41-.017.531h-6.253c.144.51.394.9.748 1.172.355.272.787.407 1.297.407.389 0 .762-.077 1.124-.233.36-.154.69-.382.99-.681l1.545 1.545a4.546 4.546 0 0 1-1.687 1.188c-.66.271-1.406.407-2.238.407-.965 0-1.807-.188-2.527-.565a3.926 3.926 0 0 1-1.656-1.595c-.382-.686-.573-1.484-.573-2.392 0-.92.194-1.73.582-2.434a4.009 4.009 0 0 1 1.647-1.628c.708-.383 1.53-.574 2.46-.574 1.464 0 2.589.432 3.376 1.296zM219.478 17.323c-.256 0-.46.048-.615.141a.464.464 0 0 0-.234.424c0 .2.122.36.367.481.243.123.632.256 1.163.4a14.63 14.63 0 0 1 1.606.556c.427.183.795.46 1.106.831.31.37.465.856.465 1.455 0 .907-.352 1.619-1.056 2.134-.704.515-1.622.773-2.752.773a7.364 7.364 0 0 1-2.195-.325 5.79 5.79 0 0 1-1.863-.955l.93-1.91c.51.354 1.045.628 1.606.822.56.194 1.09.29 1.588.29.289 0 .518-.046.69-.141.172-.094.258-.23.258-.407 0-.22-.124-.392-.374-.515-.25-.122-.64-.255-1.172-.399a12.875 12.875 0 0 1-1.564-.556 2.938 2.938 0 0 1-1.073-.823c-.305-.365-.457-.84-.457-1.428 0-.908.343-1.62 1.031-2.135.687-.515 1.574-.774 2.661-.774a7.234 7.234 0 0 1 3.742 1.048l-.998 1.927c-1.165-.61-2.118-.914-2.86-.914" mask="url(#h)"/>
    </g>
</svg>
